<?xml version="1.0" encoding="utf-8"?>
<!-- Generator: Adobe Illustrator 26.3.1, SVG Export Plug-In . SVG Version: 6.00 Build 0)  -->
<svg version="1.1" id="图层_1" xmlns="http://www.w3.org/2000/svg" xmlns:xlink="http://www.w3.org/1999/xlink" x="0px" y="0px"
	 viewBox="0 0 3300 2200" style="enable-background:new 0 0 3300 2200;" xml:space="preserve">
<style type="text/css">
	.st0{fill:#FFFFFF;}
	.st1{fill:none;stroke:#000000;stroke-width:0.5;}
	.st2{font-family:'Helvetica-Bold';}
	.st3{font-size:13px;}
	.st4{font-family:'Helvetica';}
	.st5{fill:none;stroke:#00AEEF;stroke-width:0.5;}
	.st6{fill:#27AAE1;}
	.st7{fill:none;stroke:#27AAE1;stroke-width:0.5;}
</style>
<g id="Notes">
	<rect id="artboard" x="1.8" y="-63.1" class="st0" width="3300" height="2200"/>
	<line class="st1" x1="264.8" y1="228.9" x2="3037.8" y2="228.9"/>
	<text transform="matrix(1 0 0 1 264.8278 258.9335)" class="st2 st3">Weight/Scale Variations</text>
	<text transform="matrix(1 0 0 1 535.8911 258.9335)" class="st4 st3">Ultralight</text>
	<text transform="matrix(1 0 0 1 845.6053 258.9335)" class="st4 st3">Thin</text>
	<text transform="matrix(1 0 0 1 1140.8628 258.9335)" class="st4 st3">Light</text>
	<text transform="matrix(1 0 0 1 1428.905 258.9335)" class="st4 st3">Regular</text>
	<text transform="matrix(1 0 0 1 1725.2697 258.9335)" class="st4 st3">Medium</text>
	<text transform="matrix(1 0 0 1 2017.9996 258.9335)" class="st4 st3">Semibold</text>
	<text transform="matrix(1 0 0 1 2328.7983 258.9335)" class="st4 st3">Bold</text>
	<text transform="matrix(1 0 0 1 2620.0938 258.9335)" class="st4 st3">Heavy</text>
	<text transform="matrix(1 0 0 1 2919.333 258.9335)" class="st4 st3">Black</text>
	<line class="st1" x1="264.8" y1="1839.9" x2="3037.8" y2="1839.9"/>
	<g transform="matrix(1 0 0 1 263 1933)">
		<path d="M11-62.3c1.1,0,2.1-0.2,3-0.6c1-0.4,1.8-1,2.5-1.7c0.7-0.7,1.3-1.6,1.7-2.5c0.4-1,0.6-2,0.6-3s-0.2-2.1-0.6-3
			c-0.4-1-1-1.8-1.7-2.5c-0.7-0.7-1.6-1.3-2.5-1.7c-1-0.4-2-0.6-3-0.6c-1.1,0-2.1,0.2-3,0.6s-1.8,1-2.5,1.7
			c-0.7,0.6-1.3,1.5-1.7,2.4c-0.4,1-0.6,2-0.6,3s0.2,2.1,0.6,3.1c0.4,1,1,1.8,1.7,2.5c0.7,0.7,1.6,1.3,2.5,1.7
			C9-62.5,10-62.3,11-62.3z M11-63.8c-0.9,0-1.7-0.2-2.5-0.5c-0.7-0.3-1.4-0.7-2-1.3s-1-1.3-1.4-2c-0.3-0.8-0.4-1.7-0.4-2.6
			s0.2-1.7,0.5-2.5c0.3-0.8,0.8-1.5,1.4-2c0.6-0.6,1.3-1,2-1.4c0.8-0.3,1.6-0.5,2.5-0.5s1.7,0.2,2.5,0.5c0.8,0.3,1.5,0.8,2,1.4
			c0.6,0.6,1,1.3,1.4,2c0.3,0.8,0.5,1.6,0.5,2.5s-0.2,1.7-0.5,2.5c-0.3,0.8-0.8,1.5-1.4,2c-0.6,0.6-1.3,1-2,1.4
			C12.8-63.9,11.9-63.8,11-63.8z M7.5-70.2c0,0.2,0.1,0.4,0.2,0.5c0.1,0.2,0.3,0.3,0.5,0.3h2.1v2.1c0,0.2,0.1,0.4,0.2,0.5
			c0.1,0.2,0.3,0.2,0.5,0.2s0.4-0.1,0.5-0.2c0.2-0.1,0.3-0.3,0.3-0.5v-2.1h2.1c0.2,0,0.4-0.1,0.5-0.2c0.1-0.1,0.2-0.3,0.2-0.5
			c0-0.2-0.1-0.4-0.2-0.5c-0.1-0.1-0.3-0.2-0.5-0.2h-2.1v-2.1c0-0.2-0.1-0.4-0.2-0.5c-0.1-0.1-0.3-0.2-0.5-0.2s-0.4,0.1-0.5,0.2
			s-0.2,0.3-0.2,0.5v2.1H8.2c-0.2-0.1-0.4,0-0.5,0.1C7.5-70.6,7.5-70.4,7.5-70.2z"/>
	</g>
	<g transform="matrix(1 0 0 1 281.867 1933)">
		<path d="M13.5-60.2c1.4,0,2.6-0.3,3.8-0.8s2.3-1.2,3.2-2.2c0.9-0.9,1.6-2,2.2-3.2c0.5-1.2,0.8-2.5,0.8-3.8c0-1.4-0.3-2.6-0.8-3.8
			c-0.5-1.2-1.2-2.3-2.2-3.2c-0.9-0.9-2-1.6-3.2-2.2c-1.2-0.5-2.5-0.8-3.8-0.8s-2.6,0.3-3.8,0.8s-2.3,1.2-3.2,2.2
			c-0.9,0.9-1.6,2-2.2,3.2c-0.5,1.2-0.8,2.5-0.8,3.8c0,1.4,0.3,2.6,0.8,3.8c0.5,1.2,1.3,2.4,2.2,3.3c0.9,0.9,2,1.6,3.2,2.2
			C10.9-60.3,12.1-60.2,13.5-60.2z M13.5-61.9c-1.2,0-2.2-0.2-3.2-0.6s-1.9-1-2.6-1.8c-0.8-0.7-1.4-1.6-1.8-2.6S5.2-69,5.2-70.2
			s0.2-2.2,0.6-3.2s1-1.9,1.8-2.6c0.8-0.8,1.6-1.4,2.6-1.8s2.1-0.6,3.2-0.6s2.2,0.2,3.2,0.6s1.9,1,2.6,1.8c0.8,0.8,1.4,1.6,1.8,2.6
			s0.6,2.1,0.6,3.2c0,1.2-0.2,2.2-0.6,3.2s-1,1.9-1.8,2.6c-0.8,0.8-1.6,1.4-2.6,1.8C15.6-62.2,14.7-61.9,13.5-61.9z M9-70.2
			c0,0.2,0.1,0.4,0.2,0.6c0.2,0.2,0.4,0.3,0.6,0.3h2.9v2.9c0,0.2,0.1,0.4,0.2,0.6c0.1,0.2,0.3,0.2,0.6,0.2c0.2,0,0.4-0.1,0.6-0.2
			c0.2-0.2,0.2-0.4,0.2-0.6v-2.9h2.9c0.2,0,0.4-0.1,0.6-0.2c0.2-0.1,0.2-0.3,0.2-0.6c0-0.2-0.1-0.4-0.2-0.6
			c-0.2-0.2-0.4-0.2-0.6-0.2h-2.9v-2.9c0-0.3-0.1-0.5-0.2-0.6s-0.4-0.2-0.6-0.2c-0.2,0-0.4,0.1-0.6,0.2c-0.1,0.2-0.2,0.4-0.2,0.6
			v2.9H9.8c-0.3,0-0.5,0.1-0.6,0.2C9.1-70.6,9-70.4,9-70.2z"/>
	</g>
	<g transform="matrix(1 0 0 1 305.646 1933)">
		<path d="M16.8-57.4c1.4,0,2.7-0.2,4-0.6s2.4-1,3.5-1.8s2-1.7,2.8-2.8c0.7-1.1,1.3-2.3,1.7-3.6c0.4-1.3,0.6-2.6,0.6-4
			s-0.2-2.7-0.6-4s-1-2.4-1.8-3.5s-1.7-2-2.8-2.8c-1.1-0.8-2.2-1.4-3.5-1.8s-2.6-0.6-4-0.6s-2.7,0.2-4,0.6s-2.4,1-3.5,1.8
			c-1.1,0.8-2,1.7-2.8,2.8S5-75.5,4.6-74.2c-0.4,1.3-0.6,2.6-0.6,4s0.2,2.7,0.6,4c0.4,1.3,1,2.4,1.8,3.5c0.8,1.1,1.7,2,2.8,2.8
			c1.2,0.8,2.3,1.4,3.6,1.8C14-57.7,15.4-57.4,16.8-57.4z M16.8-59.3c-1.2,0-2.4-0.2-3.4-0.6c-1.1-0.4-2.1-0.9-3-1.5
			c-1-0.6-1.8-1.4-2.4-2.3c-0.7-0.9-1.2-1.9-1.6-3c-0.3-1.1-0.5-2.2-0.5-3.5c0-1.2,0.2-2.4,0.5-3.5c0.4-1.1,0.9-2.1,1.5-3
			c0.7-0.9,1.4-1.7,2.4-2.4c0.9-0.7,1.9-1.2,3-1.5c1.1-0.4,2.2-0.5,3.4-0.5s2.4,0.2,3.5,0.5c1.1,0.4,2.1,0.9,3,1.5
			c0.9,0.7,1.7,1.5,2.4,2.4c0.7,0.9,1.2,1.9,1.5,3c0.4,1.1,0.6,2.2,0.6,3.5c0,1.2-0.2,2.4-0.5,3.4c-0.4,1.1-0.9,2.1-1.5,3
			c-0.7,0.9-1.5,1.7-2.4,2.4c-0.9,0.7-1.9,1.2-3,1.5C19.1-59.4,18-59.3,16.8-59.3z M11-70.2c0,0.3,0.1,0.5,0.3,0.6
			c0.2,0.2,0.4,0.2,0.7,0.2h3.9v4c0,0.3,0.1,0.5,0.2,0.7c0.2,0.2,0.4,0.3,0.6,0.3c0.3,0,0.5-0.1,0.7-0.3c0.2-0.2,0.3-0.4,0.3-0.7v-4
			h4c0.3,0,0.5-0.1,0.7-0.2c0.2-0.2,0.3-0.4,0.3-0.6c0-0.3-0.1-0.5-0.3-0.7c-0.3-0.1-0.5-0.2-0.8-0.2h-4V-75c0-0.3-0.1-0.5-0.3-0.7
			c-0.2-0.2-0.4-0.3-0.7-0.3c-0.3,0-0.5,0.1-0.6,0.3c-0.2,0.2-0.2,0.4-0.2,0.7v3.9h-3.9c-0.3,0-0.5,0.1-0.6,0.3
			C11.1-70.6,11-70.4,11-70.2z"/>
	</g>
	<text transform="matrix(1 0 0 1 264.8278 1889.9336)" class="st2 st3">Design Variations</text>
	<text transform="matrix(1 0 0 1 264.8278 1907.9336)" class="st4 st3">Symbols are supported in up to nine weights and three scales.</text>
	<text transform="matrix(1 0 0 1 264.8278 1925.9336)" class="st4 st3">For optimal layout with text and other symbols, vertically align</text>
	<text transform="matrix(1 0 0 1 264.8278 1943.9336)" class="st4 st3">symbols with the adjacent text.</text>
	<line class="st5" x1="777.8" y1="1855.9" x2="777.8" y2="1869.9"/>
	<g transform="matrix(1 0 0 1 776 1933)">
		<path d="M5.1-62.9c0.3,0,0.5-0.1,0.6-0.2c0.1-0.1,0.3-0.3,0.4-0.6l1.2-3.4h5.8l1.3,3.4c0.1,0.3,0.2,0.5,0.4,0.6
			c0.1,0.1,0.3,0.2,0.6,0.2s0.5-0.1,0.6-0.2c0.2-0.1,0.2-0.3,0.2-0.6c0-0.1,0-0.3-0.1-0.5l-4.6-12.3c-0.1-0.3-0.3-0.5-0.5-0.7
			c-0.2-0.1-0.5-0.2-0.8-0.2c-0.6,0-1,0.3-1.2,0.9L4.4-64.3c-0.1,0.2-0.1,0.4-0.1,0.6s0.1,0.4,0.2,0.6C4.6-62.9,4.9-62.9,5.1-62.9z
			 M7.8-68.6l2.4-6.6l0,0l2.4,6.6C12.6-68.6,7.8-68.6,7.8-68.6z"/>
	</g>
	<line class="st5" x1="795" y1="1855.9" x2="795" y2="1869.9"/>
	<text transform="matrix(1 0 0 1 777.8278 1889.9336)" class="st2 st3">Margins</text>
	<text transform="matrix(1 0 0 1 777.8278 1907.9336)" class="st4 st3">Leading and trailing margins on the left and right side of each symbol</text>
	<text transform="matrix(1 0 0 1 777.8278 1925.9336)" class="st4 st3">can be adjusted by modifying the x-location of the margin guidelines.</text>
	<text transform="matrix(1 0 0 1 777.8278 1943.9336)" class="st4 st3">Modifications are automatically applied proportionally to all</text>
	<text transform="matrix(1 0 0 1 777.8278 1961.9336)" class="st4 st3">scales and weights.</text>
	<g transform="matrix(1 0 0 1 1289 1933)">
		<path d="M4.6-61.2l1.7,1.7c0.5,0.4,0.9,0.6,1.4,0.6s0.9-0.3,1.4-0.8l10.7-11.8l-1-1L8.2-60.8c-0.2,0.2-0.3,0.3-0.5,0.3
			s-0.4-0.1-0.6-0.3L5.9-62c-0.2-0.2-0.3-0.4-0.3-0.6c0-0.2,0.1-0.4,0.3-0.5l11.5-10.8l-1-1L4.8-64c-0.4,0.5-0.7,0.9-0.7,1.4
			C4-62.1,4.2-61.7,4.6-61.2z M11.1-79.4c-0.2,0.2-0.3,0.4-0.4,0.7c0,0.3,0,0.5,0.1,0.7c0.1,0.2,0.3,0.3,0.5,0.4
			c0.2,0.1,0.5,0.1,0.8,0c0.7-0.2,1.5-0.2,2.2-0.2s1.5,0.3,2.2,0.7l-0.6,1.5c-0.2,0.4-0.2,0.8-0.1,1.1c0.1,0.3,0.2,0.6,0.5,0.9
			l2.3,2.3c0.2,0.2,0.5,0.4,0.7,0.4s0.5,0,0.8,0l1.1-0.2l0.7,0.7v0.6c0,0.2,0,0.5,0.1,0.7c0.1,0.2,0.2,0.4,0.5,0.7l0.8,0.7
			c0.2,0.2,0.5,0.4,0.8,0.4s0.5-0.1,0.8-0.3l2.9-2.9c0.2-0.2,0.3-0.5,0.3-0.8c0-0.3-0.1-0.5-0.4-0.8L26.8-73
			c-0.2-0.2-0.5-0.4-0.7-0.5c-0.2-0.1-0.4-0.1-0.7-0.1h-0.6l-0.6-0.6l0.2-1.1c0.1-0.3,0.1-0.5,0-0.8c-0.1-0.3-0.3-0.5-0.6-0.8
			l-2.1-2.2C20.9-79.9,20-80.5,19-81c-0.9-0.4-1.9-0.6-2.8-0.6c-1,0-1.9,0.2-2.8,0.5C12.6-80.7,11.8-80.2,11.1-79.4z M12.6-79.1
			c0.6-0.4,1.3-0.8,1.9-0.9c0.7-0.2,1.4-0.2,2.1-0.2c0.7,0.1,1.4,0.3,2.1,0.6c0.7,0.3,1.3,0.7,1.8,1.3l2.4,2.4
			c0.1,0.1,0.2,0.2,0.2,0.3c0,0.1,0,0.3,0,0.4l-0.3,1.6l1.5,1.5l1-0.1c0.1,0,0.2,0,0.3,0c0.1,0,0.1,0.1,0.2,0.2l0.6,0.6L24-69
			l-0.6-0.6c-0.1-0.1-0.2-0.2-0.2-0.2c0-0.1,0-0.2,0-0.3l0.1-1l-1.5-1.5l-1.5,0.3c-0.2,0-0.3,0-0.4,0s-0.2-0.1-0.3-0.2l-2-2
			c-0.1-0.1-0.2-0.2-0.2-0.3s0-0.3,0.1-0.4l0.9-2.1c-0.8-0.7-1.7-1.2-2.6-1.5c-1-0.3-2-0.3-3,0c-0.1,0-0.1,0-0.2,0
			C12.5-79,12.5-79,12.6-79.1z"/>
	</g>
	<text transform="matrix(1 0 0 1 1290.8278 1889.9336)" class="st2 st3">Exporting</text>
	<text transform="matrix(1 0 0 1 1290.8278 1907.9336)" class="st4 st3">Symbols should be outlined when exporting to ensure the</text>
	<text transform="matrix(1 0 0 1 1290.8278 1925.9336)" class="st4 st3">design is preserved when submitting to Xcode.</text>
	<text id="template-version" transform="matrix(1 0 0 1 2954.2417 1869.9336)" class="st4 st3">Template v.3.0</text>
	<text transform="matrix(1 0 0 1 2867.2852 1887.9336)" class="st4 st3">Requires Xcode 13 or greater</text>
	<text id="descriptive-name" transform="matrix(1 0 0 1 2852.8569 1905.9336)" class="st4 st3">Generated from hourglass.circle</text>
	<text transform="matrix(1 0 0 1 2914.2388 1923.9336)" class="st4 st3">Typeset at 100 points</text>
	<text transform="matrix(1 0 0 1 264.8278 662.9335)" class="st4 st3">Small</text>
	<text transform="matrix(1 0 0 1 264.8278 1092.9336)" class="st4 st3">Medium</text>
	<text transform="matrix(1 0 0 1 264.8278 1522.9336)" class="st4 st3">Large</text>
</g>
<g id="Guides">
	<g id="H-reference" transform="matrix(1 0 0 1 339 696)">
		<path class="st6" d="M1,0h2.6l25.7-67.1H30v-3.3h-1.9L1,0z M11.7-24.5H47l-0.8-2.2H12.4L11.7-24.5z M55.1,0h2.6L30.6-70.5h-1.2
			v3.3L55.1,0z"/>
	</g>
	<line id="Baseline-S" class="st7" x1="263" y1="696" x2="3036" y2="696"/>
	<line id="Capline-S" class="st7" x1="263" y1="625.5" x2="3036" y2="625.5"/>
	<g id="H-reference_00000174582976744177833630000007730325773184391314_" transform="matrix(1 0 0 1 339 1126)">
		<path class="st6" d="M1,0h2.6l25.7-67.1H30v-3.3h-1.9L1,0z M11.7-24.5H47l-0.8-2.2H12.4L11.7-24.5z M55.1,0h2.6L30.6-70.5h-1.2
			v3.3L55.1,0z"/>
	</g>
	<line id="Baseline-M" class="st7" x1="263" y1="1126" x2="3036" y2="1126"/>
	<line id="Capline-M" class="st7" x1="263" y1="1055.5" x2="3036" y2="1055.5"/>
	<g id="H-reference_00000113329496982249443560000009416180920334905247_" transform="matrix(1 0 0 1 339 1556)">
		<path class="st6" d="M1,0h2.6l25.7-67.1H30v-3.3h-1.9L1,0z M11.7-24.5H47l-0.8-2.2H12.4L11.7-24.5z M55.1,0h2.6L30.6-70.5h-1.2
			v3.3L55.1,0z"/>
	</g>
	<line id="Baseline-L" class="st7" x1="263" y1="1556" x2="3036" y2="1556"/>
	<line id="Capline-L" class="st7" x1="263" y1="1485.5" x2="3036" y2="1485.5"/>
	<line id="left-margin-Regular-M" class="st5" x1="1391.3" y1="1030.8" x2="1391.3" y2="1150.1"/>
	<line id="right-margin-Regular-M" class="st5" x1="1508.4" y1="1030.8" x2="1508.4" y2="1150.1"/>
</g>
<g id="Symbols">
	<g id="Regular-M" transform="matrix(1 0 0 1 1391.32 1126)">
		<g>
			<path d="M59.3,7.1c-1.8-1-3.6-1.6-4.8-2.8c-12.1-12-24.1-24-36.1-36c-2.6-2.6-2.4-5.6,0.2-8.1c12-12,24-24.1,36.1-36
				c2.9-2.9,5.5-3,8.5,0c12,11.8,23.9,23.7,35.7,35.6c3.4,3.5,3.3,5.8-0.2,9.3C87.2-19.3,75.6-7.7,63.9,3.9
				C62.7,5.1,61,5.9,59.3,7.1z M21.4-35.9C33.8-23.4,46.6-10.6,59,1.9c12.4-12.4,25.3-25.2,37.7-37.6C84.2-48.1,71.4-61,59-73.4
				C46.6-61,33.7-48.2,21.4-35.9z"/>
			<g>
				<path d="M79.1-46.4v21.2c3.6-3.6,7.1-7.1,10.5-10.5C86.1-39.3,82.6-42.8,79.1-46.4z"/>
				<path d="M73.9-51.7H45.1c-0.6,0.6-1.2,1.2-1.8,1.8v29.8c0.1,0.1,0.2,0.2,0.4,0.4h30c0.5-0.5,1-1,1.6-1.6v-29
					C74.8-50.8,74.3-51.3,73.9-51.7z M48.8-36.2c3.2-3.2,6.5-6.6,10.2-10.3c3.7,3.7,7,7.1,10.6,10.8c-3.6,3.6-6.9,7-10.6,10.8
					C55.5-28.8,52.3-32.4,48.8-36.2z"/>
				<path d="M47.5-15.9c3.7,3.8,7.4,7.5,11,11.2c3.8-3.8,7.5-7.5,11.2-11.2H47.5z"/>
				<path d="M39.4-46.1c-3.7,3.6-7.4,7.3-11,10.8c3.6,3.7,7.3,7.4,11,11.2V-46.1z"/>
				<path d="M70.1-55.6c-3.5-3.6-7-7.1-10.3-10.5c-3.5,3.5-7.1,7-10.7,10.5H70.1z"/>
			</g>
		</g>
	</g>
</g>
</svg>
