<?xml version="1.0" standalone="no"?><!DOCTYPE svg PUBLIC "-//W3C//DTD SVG 1.1//EN" "http://www.w3.org/Graphics/SVG/1.1/DTD/svg11.dtd"><svg class="icon" width="200px" height="177.78px" viewBox="0 0 1152 1024" version="1.1" xmlns="http://www.w3.org/2000/svg"><path d="M1090 235.4c7.4-25 0-43.4-35.6-43.4h-117.8c-30 0-43.8 15.8-51.2 33.4 0 0-60 146.2-144.8 241-27.4 27.4-40 36.2-55 36.2-7.4 0-18.8-8.8-18.8-33.8V235.4c0-30-8.4-43.4-33.2-43.4h-185.2c-18.8 0-30 14-30 27 0 28.4 42.4 35 46.8 115v173.6c0 38-6.8 45-21.8 45-40 0-137.2-146.8-194.8-314.8-11.6-32.6-23-45.8-53.2-45.8H77.6c-33.6 0-40.4 15.8-40.4 33.4 0 31.2 40 186.2 186.2 391C320.8 756.2 458 832 582.8 832c75 0 84.2-16.8 84.2-45.8 0-133.6-6.8-146.2 30.8-146.2 17.4 0 47.4 8.8 117.4 76.2 80 80 93.2 115.8 138 115.8h117.8c33.6 0 50.6-16.8 40.8-50-22.4-69.8-173.8-213.4-180.6-223-17.4-22.4-12.4-32.4 0-52.4 0.2-0.2 144-202.6 158.8-271.2z" /></svg>