<?xml version="1.0" encoding="UTF-8"?>
<!--Generator: Apple Native CoreSVG 175-->
<!DOCTYPE svg
PUBLIC "-//W3C//DTD SVG 1.1//EN"
       "http://www.w3.org/Graphics/SVG/1.1/DTD/svg11.dtd">
<svg version="1.1" xmlns="http://www.w3.org/2000/svg" xmlns:xlink="http://www.w3.org/1999/xlink" width="3300" height="2200">
 <!--glyph: "uni1011DB.medium", point size: 100.0, font version: "17.3d3e1", template writer version: "65.1"-->
 <g id="Notes">
  <rect height="2200" id="artboard" style="fill:white;opacity:1" width="3300" x="0" y="0"/>
  <line style="fill:none;stroke:black;opacity:1;stroke-width:0.5;" x1="263" x2="3036" y1="292" y2="292"/>
  <text style="stroke:none;fill:black;font-family:sans-serif;font-size:13;font-weight:bold;" transform="matrix(1 0 0 1 263 322)">Weight/Scale Variations</text>
  <text style="stroke:none;fill:black;font-family:sans-serif;font-size:13;text-anchor:middle;" transform="matrix(1 0 0 1 559.711 322)">Ultralight</text>
  <text style="stroke:none;fill:black;font-family:sans-serif;font-size:13;text-anchor:middle;" transform="matrix(1 0 0 1 856.422 322)">Thin</text>
  <text style="stroke:none;fill:black;font-family:sans-serif;font-size:13;text-anchor:middle;" transform="matrix(1 0 0 1 1153.13 322)">Light</text>
  <text style="stroke:none;fill:black;font-family:sans-serif;font-size:13;text-anchor:middle;" transform="matrix(1 0 0 1 1449.84 322)">Regular</text>
  <text style="stroke:none;fill:black;font-family:sans-serif;font-size:13;text-anchor:middle;" transform="matrix(1 0 0 1 1746.56 322)">Medium</text>
  <text style="stroke:none;fill:black;font-family:sans-serif;font-size:13;text-anchor:middle;" transform="matrix(1 0 0 1 2043.27 322)">Semibold</text>
  <text style="stroke:none;fill:black;font-family:sans-serif;font-size:13;text-anchor:middle;" transform="matrix(1 0 0 1 2339.98 322)">Bold</text>
  <text style="stroke:none;fill:black;font-family:sans-serif;font-size:13;text-anchor:middle;" transform="matrix(1 0 0 1 2636.69 322)">Heavy</text>
  <text style="stroke:none;fill:black;font-family:sans-serif;font-size:13;text-anchor:middle;" transform="matrix(1 0 0 1 2933.4 322)">Black</text>
  <line style="fill:none;stroke:black;opacity:1;stroke-width:0.5;" x1="263" x2="3036" y1="1903" y2="1903"/>
  <g transform="matrix(1 0 0 1 263 1933)">
   <path d="M9.24805 0.830078Q10.8691 0.830078 12.2949 0.214844Q13.7207-0.400391 14.8096-1.49414Q15.8984-2.58789 16.5186-4.01367Q17.1387-5.43945 17.1387-7.05078Q17.1387-8.66211 16.5186-10.0879Q15.8984-11.5137 14.8047-12.6074Q13.7109-13.7012 12.2852-14.3164Q10.8594-14.9316 9.23828-14.9316Q7.62695-14.9316 6.20117-14.3164Q4.77539-13.7012 3.69141-12.6074Q2.60742-11.5137 1.9873-10.0879Q1.36719-8.66211 1.36719-7.05078Q1.36719-5.43945 1.9873-4.01367Q2.60742-2.58789 3.69629-1.49414Q4.78516-0.400391 6.21094 0.214844Q7.63672 0.830078 9.24805 0.830078ZM9.24805-0.654297Q7.91992-0.654297 6.7627-1.14746Q5.60547-1.64062 4.73145-2.51953Q3.85742-3.39844 3.36426-4.56055Q2.87109-5.72266 2.87109-7.05078Q2.87109-8.37891 3.35938-9.54102Q3.84766-10.7031 4.72168-11.582Q5.5957-12.4609 6.75293-12.9541Q7.91016-13.4473 9.23828-13.4473Q10.5762-13.4473 11.7334-12.9541Q12.8906-12.4609 13.7695-11.582Q14.6484-10.7031 15.1465-9.54102Q15.6445-8.37891 15.6445-7.05078Q15.6445-5.72266 15.1514-4.56055Q14.6582-3.39844 13.7842-2.51953Q12.9102-1.64062 11.748-1.14746Q10.5859-0.654297 9.24805-0.654297ZM5.6543-7.05078Q5.6543-6.72852 5.85938-6.52832Q6.06445-6.32812 6.40625-6.32812L8.51562-6.32812L8.51562-4.20898Q8.51562-3.88672 8.71094-3.67676Q8.90625-3.4668 9.23828-3.4668Q9.56055-3.4668 9.77051-3.67676Q9.98047-3.88672 9.98047-4.20898L9.98047-6.32812L12.0898-6.32812Q12.4219-6.32812 12.627-6.52832Q12.832-6.72852 12.832-7.05078Q12.832-7.38281 12.627-7.58789Q12.4219-7.79297 12.0898-7.79297L9.98047-7.79297L9.98047-9.90234Q9.98047-10.2344 9.77051-10.4443Q9.56055-10.6543 9.23828-10.6543Q8.90625-10.6543 8.71094-10.4443Q8.51562-10.2344 8.51562-9.90234L8.51562-7.79297L6.40625-7.79297Q6.06445-7.79297 5.85938-7.58789Q5.6543-7.38281 5.6543-7.05078Z"/>
  </g>
  <g transform="matrix(1 0 0 1 281.867 1933)">
   <path d="M11.709 2.91016Q13.75 2.91016 15.5518 2.12891Q17.3535 1.34766 18.7305-0.0292969Q20.1074-1.40625 20.8887-3.20801Q21.6699-5.00977 21.6699-7.05078Q21.6699-9.0918 20.8887-10.8936Q20.1074-12.6953 18.7305-14.0723Q17.3535-15.4492 15.5469-16.2305Q13.7402-17.0117 11.6992-17.0117Q9.6582-17.0117 7.85645-16.2305Q6.05469-15.4492 4.68262-14.0723Q3.31055-12.6953 2.5293-10.8936Q1.74805-9.0918 1.74805-7.05078Q1.74805-5.00977 2.5293-3.20801Q3.31055-1.40625 4.6875-0.0292969Q6.06445 1.34766 7.86621 2.12891Q9.66797 2.91016 11.709 2.91016ZM11.709 1.25Q9.98047 1.25 8.47656 0.605469Q6.97266-0.0390625 5.83496-1.17676Q4.69727-2.31445 4.05762-3.81836Q3.41797-5.32227 3.41797-7.05078Q3.41797-8.7793 4.05762-10.2832Q4.69727-11.7871 5.83008-12.9297Q6.96289-14.0723 8.4668-14.7119Q9.9707-15.3516 11.6992-15.3516Q13.4277-15.3516 14.9316-14.7119Q16.4355-14.0723 17.5781-12.9297Q18.7207-11.7871 19.3652-10.2832Q20.0098-8.7793 20.0098-7.05078Q20.0098-5.32227 19.3701-3.81836Q18.7305-2.31445 17.5928-1.17676Q16.4551-0.0390625 14.9463 0.605469Q13.4375 1.25 11.709 1.25ZM7.17773-7.05078Q7.17773-6.69922 7.41211-6.47461Q7.64648-6.25 8.01758-6.25L10.8887-6.25L10.8887-3.36914Q10.8887-2.99805 11.1133-2.76855Q11.3379-2.53906 11.6895-2.53906Q12.0605-2.53906 12.29-2.76855Q12.5195-2.99805 12.5195-3.36914L12.5195-6.25L15.4004-6.25Q15.7715-6.25 16.001-6.47461Q16.2305-6.69922 16.2305-7.05078Q16.2305-7.42188 16.001-7.65137Q15.7715-7.88086 15.4004-7.88086L12.5195-7.88086L12.5195-10.752Q12.5195-11.1328 12.29-11.3623Q12.0605-11.5918 11.6895-11.5918Q11.3379-11.5918 11.1133-11.3574Q10.8887-11.123 10.8887-10.752L10.8887-7.88086L8.01758-7.88086Q7.63672-7.88086 7.40723-7.65137Q7.17773-7.42188 7.17773-7.05078Z"/>
  </g>
  <g transform="matrix(1 0 0 1 305.646 1933)">
   <path d="M14.9707 5.66406Q17.0605 5.66406 18.96 5.01465Q20.8594 4.36523 22.4512 3.19336Q24.043 2.02148 25.2197 0.429688Q26.3965-1.16211 27.0459-3.06641Q27.6953-4.9707 27.6953-7.05078Q27.6953-9.14062 27.0459-11.04Q26.3965-12.9395 25.2197-14.5312Q24.043-16.123 22.4512-17.2998Q20.8594-18.4766 18.9551-19.126Q17.0508-19.7754 14.9609-19.7754Q12.8711-19.7754 10.9717-19.126Q9.07227-18.4766 7.48535-17.2998Q5.89844-16.123 4.72168-14.5312Q3.54492-12.9395 2.90039-11.04Q2.25586-9.14062 2.25586-7.05078Q2.25586-4.9707 2.90527-3.06641Q3.55469-1.16211 4.72656 0.429688Q5.89844 2.02148 7.49023 3.19336Q9.08203 4.36523 10.9814 5.01465Q12.8809 5.66406 14.9707 5.66406ZM14.9707 3.84766Q13.1641 3.84766 11.5283 3.2959Q9.89258 2.74414 8.53516 1.74805Q7.17773 0.751953 6.17676-0.610352Q5.17578-1.97266 4.62891-3.6084Q4.08203-5.24414 4.08203-7.05078Q4.08203-8.86719 4.62891-10.5029Q5.17578-12.1387 6.17188-13.501Q7.16797-14.8633 8.52539-15.8594Q9.88281-16.8555 11.5186-17.4023Q13.1543-17.9492 14.9609-17.9492Q16.7773-17.9492 18.4131-17.4023Q20.0488-16.8555 21.4111-15.8594Q22.7734-14.8633 23.7695-13.501Q24.7656-12.1387 25.3174-10.5029Q25.8691-8.86719 25.8691-7.05078Q25.8789-5.24414 25.332-3.6084Q24.7852-1.97266 23.7842-0.610352Q22.7832 0.751953 21.4209 1.74805Q20.0586 2.74414 18.4229 3.2959Q16.7871 3.84766 14.9707 3.84766ZM9.19922-7.05078Q9.19922-6.66992 9.45801-6.4209Q9.7168-6.17188 10.1172-6.17188L14.0625-6.17188L14.0625-2.2168Q14.0625-1.81641 14.3115-1.55762Q14.5605-1.29883 14.9512-1.29883Q15.3516-1.29883 15.6104-1.55273Q15.8691-1.80664 15.8691-2.2168L15.8691-6.17188L19.8242-6.17188Q20.2246-6.17188 20.4785-6.4209Q20.7324-6.66992 20.7324-7.05078Q20.7324-7.46094 20.4785-7.71484Q20.2246-7.96875 19.8242-7.96875L15.8691-7.96875L15.8691-11.9141Q15.8691-12.3242 15.6104-12.583Q15.3516-12.8418 14.9512-12.8418Q14.5605-12.8418 14.3115-12.583Q14.0625-12.3242 14.0625-11.9141L14.0625-7.96875L10.1172-7.96875Q9.70703-7.96875 9.45312-7.71484Q9.19922-7.46094 9.19922-7.05078Z"/>
  </g>
  <text style="stroke:none;fill:black;font-family:sans-serif;font-size:13;font-weight:bold;" transform="matrix(1 0 0 1 263 1953)">Design Variations</text>
  <text style="stroke:none;fill:black;font-family:sans-serif;font-size:13;" transform="matrix(1 0 0 1 263 1971)">Symbols are supported in up to nine weights and three scales.</text>
  <text style="stroke:none;fill:black;font-family:sans-serif;font-size:13;" transform="matrix(1 0 0 1 263 1989)">For optimal layout with text and other symbols, vertically align</text>
  <text style="stroke:none;fill:black;font-family:sans-serif;font-size:13;" transform="matrix(1 0 0 1 263 2007)">symbols with the adjacent text.</text>
  <line style="fill:none;stroke:#00AEEF;stroke-width:0.5;opacity:1.0;" x1="776" x2="776" y1="1919" y2="1933"/>
  <g transform="matrix(1 0 0 1 776 1933)">
   <path d="M3.31055 0.15625Q3.70117 0.15625 3.91602-0.00976562Q4.13086-0.175781 4.26758-0.585938L5.52734-4.0332L11.2891-4.0332L12.5488-0.585938Q12.6855-0.175781 12.9004-0.00976562Q13.1152 0.15625 13.4961 0.15625Q13.8867 0.15625 14.1162-0.0585938Q14.3457-0.273438 14.3457-0.644531Q14.3457-0.869141 14.2383-1.17188L9.6582-13.3691Q9.48242-13.8184 9.17969-14.043Q8.87695-14.2676 8.4082-14.2676Q7.5-14.2676 7.17773-13.3789L2.59766-1.16211Q2.49023-0.859375 2.49023-0.634766Q2.49023-0.263672 2.70996-0.0537109Q2.92969 0.15625 3.31055 0.15625ZM6.00586-5.51758L8.37891-12.0898L8.42773-12.0898L10.8008-5.51758Z"/>
  </g>
  <line style="fill:none;stroke:#00AEEF;stroke-width:0.5;opacity:1.0;" x1="793.197" x2="793.197" y1="1919" y2="1933"/>
  <text style="stroke:none;fill:black;font-family:sans-serif;font-size:13;font-weight:bold;" transform="matrix(1 0 0 1 776 1953)">Margins</text>
  <text style="stroke:none;fill:black;font-family:sans-serif;font-size:13;" transform="matrix(1 0 0 1 776 1971)">Leading and trailing margins on the left and right side of each symbol</text>
  <text style="stroke:none;fill:black;font-family:sans-serif;font-size:13;" transform="matrix(1 0 0 1 776 1989)">can be adjusted by modifying the x-location of the margin guidelines.</text>
  <text style="stroke:none;fill:black;font-family:sans-serif;font-size:13;" transform="matrix(1 0 0 1 776 2007)">Modifications are automatically applied proportionally to all</text>
  <text style="stroke:none;fill:black;font-family:sans-serif;font-size:13;" transform="matrix(1 0 0 1 776 2025)">scales and weights.</text>
  <g transform="matrix(1 0 0 1 1289 1933)">
   <path d="M2.8418 1.86523L4.54102 3.57422Q5.18555 4.22852 5.90332 4.17969Q6.62109 4.13086 7.31445 3.35938L18.0078-8.42773L17.041-9.4043L6.42578 2.27539Q6.16211 2.57812 5.89355 2.61719Q5.625 2.65625 5.27344 2.30469L4.10156 1.14258Q3.75 0.791016 3.79395 0.522461Q3.83789 0.253906 4.14062-0.0195312L15.6152-10.8203L14.6387-11.7871L3.04688-0.898438Q2.30469-0.214844 2.25098 0.498047Q2.19727 1.21094 2.8418 1.86523ZM9.25781-16.3281Q8.94531-16.0254 8.90625-15.6348Q8.86719-15.2441 9.04297-14.9512Q9.21875-14.6777 9.55566-14.541Q9.89258-14.4043 10.3809-14.5215Q11.4746-14.7754 12.5977-14.7314Q13.7207-14.6875 14.7949-13.9844L14.209-12.5293Q13.9551-11.9043 14.0674-11.4404Q14.1797-10.9766 14.5801-10.5664L16.875-8.25195Q17.2363-7.88086 17.5781-7.82227Q17.9199-7.76367 18.3398-7.8418L19.4043-8.03711L20.0684-7.36328L20.0293-6.80664Q20-6.43555 20.1221-6.12305Q20.2441-5.81055 20.6055-5.44922L21.3672-4.70703Q21.7285-4.3457 22.1533-4.33105Q22.5781-4.31641 22.9297-4.66797L25.8398-7.58789Q26.1914-7.93945 26.1816-8.35449Q26.1719-8.76953 25.8105-9.13086L25.0391-9.89258Q24.6875-10.2539 24.3799-10.3857Q24.0723-10.5176 23.7109-10.4883L23.1348-10.4395L22.4902-11.0742L22.7344-12.1973Q22.832-12.6172 22.6953-12.9834Q22.5586-13.3496 22.1191-13.7891L19.9219-15.9766Q18.6719-17.2168 17.2607-17.8369Q15.8496-18.457 14.4189-18.4814Q12.9883-18.5059 11.665-17.959Q10.3418-17.4121 9.25781-16.3281ZM10.752-15.957Q11.6602-16.6211 12.7002-16.9043Q13.7402-17.1875 14.8047-17.085Q15.8691-16.9824 16.8701-16.5137Q17.8711-16.0449 18.7012-15.2051L21.1328-12.793Q21.3086-12.6172 21.3525-12.4512Q21.3965-12.2852 21.3379-12.0312L21.0156-10.5469L22.5195-9.0625L23.5059-9.12109Q23.6914-9.13086 23.7891-9.09668Q23.8867-9.0625 24.0332-8.91602L24.6094-8.33984L22.168-5.89844L21.5918-6.47461Q21.4453-6.62109 21.4062-6.71875Q21.3672-6.81641 21.377-7.01172L21.4453-7.98828L19.9512-9.47266L18.4277-9.21875Q18.1836-9.16992 18.042-9.2041Q17.9004-9.23828 17.7148-9.41406L15.7129-11.416Q15.5176-11.5918 15.4932-11.7529Q15.4688-11.9141 15.5859-12.1875L16.4648-14.2773Q15.293-15.3711 13.8281-15.791Q12.3633-16.2109 10.8398-15.7617Q10.7227-15.7324 10.6885-15.8057Q10.6543-15.8789 10.752-15.957Z"/>
  </g>
  <text style="stroke:none;fill:black;font-family:sans-serif;font-size:13;font-weight:bold;" transform="matrix(1 0 0 1 1289 1953)">Exporting</text>
  <text style="stroke:none;fill:black;font-family:sans-serif;font-size:13;" transform="matrix(1 0 0 1 1289 1971)">Symbols should be outlined when exporting to ensure the</text>
  <text style="stroke:none;fill:black;font-family:sans-serif;font-size:13;" transform="matrix(1 0 0 1 1289 1989)">design is preserved when submitting to Xcode.</text>
  <text id="template-version" style="stroke:none;fill:black;font-family:sans-serif;font-size:13;text-anchor:end;" transform="matrix(1 0 0 1 3036 1933)">Template v.3.0</text>
  <text style="stroke:none;fill:black;font-family:sans-serif;font-size:13;text-anchor:end;" transform="matrix(1 0 0 1 3036 1951)">Requires Xcode 13 or greater</text>
  <text id="descriptive-name" style="stroke:none;fill:black;font-family:sans-serif;font-size:13;text-anchor:end;" transform="matrix(1 0 0 1 3036 1969)">Generated from hourglass.circle</text>
  <text style="stroke:none;fill:black;font-family:sans-serif;font-size:13;text-anchor:end;" transform="matrix(1 0 0 1 3036 1987)">Typeset at 100 points</text>
  <text style="stroke:none;fill:black;font-family:sans-serif;font-size:13;" transform="matrix(1 0 0 1 263 726)">Small</text>
  <text style="stroke:none;fill:black;font-family:sans-serif;font-size:13;" transform="matrix(1 0 0 1 263 1156)">Medium</text>
  <text style="stroke:none;fill:black;font-family:sans-serif;font-size:13;" transform="matrix(1 0 0 1 263 1586)">Large</text>
 </g>
 <g id="Guides">
  <g id="H-reference" style="fill:#27AAE1;stroke:none;" transform="matrix(1 0 0 1 339 696)">
   <path d="M0.993347 0L3.6377 0L29.3282-67.1326L30.0301-67.1326L30.0301-70.459L28.1227-70.459ZM11.6882-24.4797L46.9818-24.4797L46.2311-26.7288L12.4382-26.7288ZM55.1193 0L57.7637 0L30.6381-70.459L29.4327-70.459L29.4327-67.1326Z"/>
  </g>
  <line id="Baseline-S" style="fill:none;stroke:#27AAE1;opacity:1;stroke-width:0.5;" x1="263" x2="3036" y1="696" y2="696"/>
  <line id="Capline-S" style="fill:none;stroke:#27AAE1;opacity:1;stroke-width:0.5;" x1="263" x2="3036" y1="625.541" y2="625.541"/>
  <g id="H-reference" style="fill:#27AAE1;stroke:none;" transform="matrix(1 0 0 1 339 1126)">
   <path d="M0.993347 0L3.6377 0L29.3282-67.1326L30.0301-67.1326L30.0301-70.459L28.1227-70.459ZM11.6882-24.4797L46.9818-24.4797L46.2311-26.7288L12.4382-26.7288ZM55.1193 0L57.7637 0L30.6381-70.459L29.4327-70.459L29.4327-67.1326Z"/>
  </g>
  <line id="Baseline-M" style="fill:none;stroke:#27AAE1;opacity:1;stroke-width:0.5;" x1="263" x2="3036" y1="1126" y2="1126"/>
  <line id="Capline-M" style="fill:none;stroke:#27AAE1;opacity:1;stroke-width:0.5;" x1="263" x2="3036" y1="1055.54" y2="1055.54"/>
  <g id="H-reference" style="fill:#27AAE1;stroke:none;" transform="matrix(1 0 0 1 339 1556)">
   <path d="M0.993347 0L3.6377 0L29.3282-67.1326L30.0301-67.1326L30.0301-70.459L28.1227-70.459ZM11.6882-24.4797L46.9818-24.4797L46.2311-26.7288L12.4382-26.7288ZM55.1193 0L57.7637 0L30.6381-70.459L29.4327-70.459L29.4327-67.1326Z"/>
  </g>
  <line id="Baseline-L" style="fill:none;stroke:#27AAE1;opacity:1;stroke-width:0.5;" x1="263" x2="3036" y1="1556" y2="1556"/>
  <line id="Capline-L" style="fill:none;stroke:#27AAE1;opacity:1;stroke-width:0.5;" x1="263" x2="3036" y1="1485.54" y2="1485.54"/>
  <line id="left-margin-Regular-M" style="fill:none;stroke:#00AEEF;stroke-width:0.5;opacity:1.0;" x1="1391.32" x2="1391.32" y1="1030.79" y2="1150.12"/>
  <line id="right-margin-Regular-M" style="fill:none;stroke:#00AEEF;stroke-width:0.5;opacity:1.0;" x1="1508.37" x2="1508.37" y1="1030.79" y2="1150.12"/>
 </g>
 <g id="Symbols">
  <g id="Black-L" transform="matrix(1 0 0 1 2854.19 1556)">
   <path d="M79.1953 32.7252Q93.2356 32.7252 105.521 27.4303Q117.806 22.1354 127.174 12.7571Q136.542 3.37874 141.848-8.90649Q147.154-21.1917 147.154-35.2113Q147.154-49.2309 141.848-61.5161Q136.542-73.8013 127.164-83.1796Q117.785-92.558 105.5-97.8529Q93.2149-103.148 79.1746-103.148Q65.1563-103.148 52.8704-97.8529Q40.5846-92.558 31.2276-83.1796Q21.8707-73.8013 16.5647-61.5161Q11.2588-49.2309 11.2588-35.2113Q11.2588-21.1917 16.5647-8.90649Q21.8707 3.37874 31.238 12.7571Q40.6053 22.1354 52.8912 27.4303Q65.177 32.7252 79.1953 32.7252ZM79.1953 12.5777Q69.2941 12.5777 60.6256 8.86047Q51.9572 5.14327 45.4197-1.40458Q38.8822-7.95243 35.1644-16.6312Q31.4465-25.3101 31.4465-35.2113Q31.4465-45.1125 35.154-53.7913Q38.8615-62.4702 45.399-69.018Q51.9365-75.5659 60.6049-79.2831Q69.2734-83.0003 79.1746-83.0003Q89.0966-83.0003 97.7657-79.2831Q106.435-75.5659 112.982-69.018Q119.529-62.4702 123.257-53.7913Q126.986-45.1125 126.986-35.2113Q126.986-25.3101 123.268-16.6312Q119.551-7.95243 113.014-1.40458Q106.476 5.14327 97.7974 8.86047Q89.1186 12.5777 79.1953 12.5777ZM64.4086-1.02413L94.0054-1.02413Q97.5365-1.02413 99.5439-3.02121Q101.551-5.01829 101.551-8.59081L101.551-9.15352Q101.551-13.8775 99.017-18.2679Q96.4826-22.6583 93.3791-26.1282Q90.2756-29.5981 88.4408-31.3745Q86.6185-33.1968 86.6392-35.341Q86.66-37.4852 88.4408-39.2454Q90.2756-41.0801 93.3791-44.5104Q96.4826-47.9408 99.017-52.3416Q101.551-56.7423 101.551-61.487L101.551-61.9486Q101.551-65.5211 99.5439-67.5182Q97.5365-69.5153 94.0054-69.5153L64.4086-69.5153Q60.8568-69.5153 58.8493-67.5182Q56.8419-65.5211 56.8419-61.9486L56.8419-61.487Q56.8419-56.7423 59.3762-52.3416Q61.9106-47.9408 65.0433-44.5104Q68.1761-41.0801 69.9511-39.2454Q71.7333-37.4852 71.7643-35.341Q71.7954-33.1968 69.9511-31.3745Q68.1761-29.5981 65.0433-26.1282Q61.9106-22.6583 59.3762-18.2679Q56.8419-13.8775 56.8419-9.15352L56.8419-8.59081Q56.8419-5.01829 58.8493-3.02121Q60.8568-1.02413 64.4086-1.02413ZM68.1953-8.78361Q66.78-8.78361 66.3817-10.0802Q65.9834-11.3767 66.981-12.3536L75.8965-21.5207Q76.6283-22.3122 76.8469-22.7579Q77.0655-23.2036 77.0655-24.4259L77.0655-37.4497Q77.0655-40.3479 75.0003-42.3937Q73.6595-43.6604 71.9301-45.373Q70.2007-47.0855 68.9092-48.521Q67.9726-49.5783 68.3209-50.6681Q68.6692-51.7579 70.1184-51.7579L88.2956-51.7579Q89.7227-51.7579 90.0717-50.6681Q90.4206-49.5783 89.484-48.521Q88.1925-47.0855 86.4631-45.373Q84.7337-43.6604 83.393-42.3937Q81.3277-40.3479 81.3277-37.4497L81.3277-24.4259Q81.3277-23.2036 81.5755-22.7579Q81.8233-22.3122 82.4967-21.5207L91.4109-12.3536Q92.4682-11.3767 92.0511-10.0802Q91.6339-8.78361 90.1967-8.78361Z"/>
  </g>
  <g id="Heavy-L" transform="matrix(1 0 0 1 2558.42 1556)">
   <path d="M78.2511 31.7672Q92.088 31.7672 104.202 26.5464Q116.316 21.3256 125.559 12.0677Q134.802 2.8099 140.04-9.30402Q145.279-21.4179 145.279-35.2251Q145.279-49.0322 140.04-61.1461Q134.802-73.2601 125.544-82.5179Q116.286-91.7758 104.172-96.9966Q92.0582-102.217 78.2213-102.217Q64.4202-102.217 52.3033-96.9966Q40.1863-91.7758 30.9613-82.5179Q21.7362-73.2601 16.4975-61.1461Q11.2588-49.0322 11.2588-35.2251Q11.2588-21.4179 16.4975-9.30402Q21.7362 2.8099 30.9761 12.0677Q40.2161 21.3256 52.333 26.5464Q64.45 31.7672 78.2511 31.7672ZM78.2511 14.0252Q68.0447 14.0252 59.1149 10.2016Q50.1851 6.37791 43.4463-0.375708Q36.7076-7.12933 32.8809-16.074Q29.0543-25.0188 29.0543-35.2251Q29.0543-45.4314 32.8661-54.3761Q36.6778-63.3208 43.4166-70.0745Q50.1553-76.8281 59.0851-80.6517Q68.015-84.4754 78.2213-84.4754Q88.4574-84.4754 97.3902-80.6517Q106.323-76.8281 113.074-70.0745Q119.824-63.3208 123.666-54.3761Q127.507-45.4314 127.507-35.2251Q127.507-25.0188 123.684-16.074Q119.86-7.12933 113.121-0.375708Q106.383 6.37791 97.4379 10.2016Q88.4932 14.0252 78.2511 14.0252ZM62.923-0.412429L93.621-0.412429Q97.0033-0.412429 98.9388-2.333Q100.874-4.25357 100.874-7.69544L100.874-8.35174Q100.874-13.0933 98.275-17.5856Q95.6758-22.078 92.4102-25.7266Q89.1446-29.3752 87.0547-31.4204Q85.2119-33.2633 85.2416-35.3546Q85.2714-37.4458 87.0547-39.1994Q89.1446-41.2893 92.4102-44.9007Q95.6758-48.5121 98.275-53.0193Q100.874-57.5265 100.874-62.2978L100.874-62.844Q100.874-66.2858 98.9388-68.2064Q97.0033-70.127 93.621-70.127L62.923-70.127Q59.5109-70.127 57.5755-68.2064Q55.64-66.2858 55.64-62.844L55.64-62.2978Q55.64-57.5265 58.2392-53.0193Q60.8385-48.5121 64.1263-44.9007Q67.4142-41.2893 69.4535-39.1994Q71.2428-37.4458 71.2875-35.3546Q71.3321-33.2633 69.4535-31.4204Q67.4142-29.3752 64.1263-25.7266Q60.8385-22.078 58.2392-17.5856Q55.64-13.0933 55.64-8.35174L55.64-7.69544Q55.64-4.25357 57.5755-2.333Q59.5109-0.412429 62.923-0.412429ZM66.5196-7.57457Q65.1562-7.57457 64.7855-8.82647Q64.4147-10.0784 65.3705-11.0044L75.0677-20.9646Q75.7078-21.6553 75.9103-22.0528Q76.1127-22.4502 76.1127-23.4891L76.1127-37.5895Q76.1127-40.31 74.169-42.2299Q72.6425-43.7062 70.8038-45.5332Q68.9652-47.3602 67.5344-48.9402Q66.6353-49.9466 66.9672-50.9438Q67.2992-51.9409 68.6328-51.9409L87.9111-51.9409Q89.209-51.9409 89.544-50.9438Q89.8789-49.9466 88.9798-48.9402Q87.5491-47.3602 85.7104-45.5332Q83.8717-43.7062 82.3452-42.2299Q80.4015-40.31 80.4015-37.5895L80.4015-23.4891Q80.4015-22.4502 80.6263-22.0528Q80.851-21.6553 81.4465-20.9646L91.1377-11.0044Q92.1441-10.0784 91.7659-8.82647Q91.3878-7.57457 89.9885-7.57457Z"/>
  </g>
  <g id="Bold-L" transform="matrix(1 0 0 1 2262.89 1556)">
   <path d="M77.0653 30.566Q90.6516 30.566 102.549 25.4396Q114.447 20.3133 123.533 11.2089Q132.619 2.10448 137.771-9.79333Q142.923-21.6912 142.923-35.2405Q142.923-48.7898 137.771-60.6877Q132.619-72.5855 123.515-81.6899Q114.41-90.7942 102.512-95.9206Q90.6146-101.047 77.0283-101.047Q63.4932-101.047 51.5882-95.9206Q39.6833-90.7942 30.623-81.6899Q21.5627-72.5855 16.4108-60.6877Q11.2588-48.7898 11.2588-35.2405Q11.2588-21.6912 16.4108-9.79333Q21.5627 2.10448 30.6415 11.2089Q39.7203 20.3133 51.6252 25.4396Q63.5301 30.566 77.0653 30.566ZM77.0653 15.8201Q66.4831 15.8201 57.2278 11.8629Q47.9725 7.90583 40.9827 0.897553Q33.9929-6.11072 30.0287-15.3845Q26.0645-24.6583 26.0645-35.2405Q26.0645-45.8227 30.0102-55.0965Q33.9559-64.3703 40.9457-71.3786Q47.9355-78.3868 57.1908-82.3439Q66.4461-86.3011 77.0283-86.3011Q87.6474-86.3011 96.9099-82.3439Q106.172-78.3868 113.173-71.3786Q120.175-64.3703 124.157-55.0965Q128.14-45.8227 128.14-35.2405Q128.14-24.6583 124.183-15.3845Q120.226-6.11072 113.236 0.897553Q106.246 7.90583 96.9725 11.8629Q87.6986 15.8201 77.0653 15.8201ZM61.0626 0.283365L93.1333 0.283365Q96.3177 0.283365 98.1582-1.53867Q99.9987-3.3607 99.9987-6.619L99.9987-7.41165Q99.9987-12.1585 97.3169-16.7807Q94.635-21.4029 91.1651-25.2845Q87.6952-29.166 85.2738-31.5582Q83.4541-33.3779 83.4911-35.3654Q83.5281-37.3528 85.2738-39.0616Q87.6952-41.483 91.1651-45.3315Q94.635-49.1799 97.3169-53.8206Q99.9987-58.4613 99.9987-63.2452L99.9987-63.9204Q99.9987-67.1787 98.1582-69.0007Q96.3177-70.8228 93.1333-70.8228L61.0626-70.8228Q57.8413-70.8228 56.0008-69.0007Q54.1603-67.1787 54.1603-63.9204L54.1603-63.2452Q54.1603-58.4613 56.8421-53.8206Q59.524-49.1799 63.0085-45.3315Q66.4929-41.483 68.8709-39.0616Q70.6309-37.3528 70.6864-35.3654Q70.7419-33.3779 68.8709-31.5582Q66.4929-29.166 63.0085-25.2845Q59.524-21.4029 56.8421-16.7807Q54.1603-12.1585 54.1603-7.41165L54.1603-6.619Q54.1603-3.3607 56.0008-1.53867Q57.8413 0.283365 61.0626 0.283365ZM64.415-6.12422Q63.1324-6.12422 62.7926-7.30746Q62.4527-8.4907 63.353-9.35406L74.0226-20.3396Q74.563-20.9234 74.7459-21.2669Q74.9288-21.6103 74.9288-22.4497L74.9288-37.697Q74.9288-40.1611 73.1615-41.9057Q71.3897-43.6681 69.4043-45.6592Q67.4189-47.6503 65.8065-49.4293Q64.9638-50.3731 65.2716-51.2521Q65.5795-52.1312 66.7725-52.1312L87.4235-52.1312Q88.5653-52.1312 88.8802-51.2521Q89.1952-50.3731 88.3525-49.4293Q86.74-47.6503 84.7546-45.6592Q82.7692-43.6681 80.9975-41.9057Q79.2302-40.1611 79.2302-37.697L79.2302-22.4497Q79.2302-21.6103 79.4277-21.2669Q79.6252-20.9234 80.1364-20.3396L90.7917-9.35406Q91.7355-8.4907 91.3995-7.30746Q91.0635-6.12422 89.7298-6.12422Z"/>
  </g>
  <g id="Semibold-L" transform="matrix(1 0 0 1 1966.99 1556)">
   <path d="M76.2478 29.7379Q89.6614 29.7379 101.41 24.6766Q113.159 19.6153 122.137 10.6168Q131.114 1.61818 136.206-10.1307Q141.299-21.8795 141.299-35.2511Q141.299-48.6228 136.206-60.3716Q131.114-72.1204 122.116-81.119Q113.117-90.1176 101.368-95.1789Q89.6194-100.24 76.2058-100.24Q62.854-100.24 51.0953-95.1789Q39.3365-90.1176 30.3898-81.119Q21.4432-72.1204 16.351-60.3716Q11.2588-48.6228 11.2588-35.2511Q11.2588-21.8795 16.351-10.1307Q21.4432 1.61818 30.4108 10.6168Q39.3785 19.6153 51.1372 24.6766Q62.896 29.7379 76.2478 29.7379ZM76.2478 17.0574Q65.4065 17.0574 55.9268 13.0083Q46.4471 8.95916 39.2843 1.77533Q32.1214-5.4085 28.0624-14.9092Q24.0033-24.4099 24.0033-35.2511Q24.0033-46.0924 28.0414-55.5931Q32.0795-65.0938 39.2423-72.2776Q46.4052-79.4614 55.8848-83.5105Q65.3645-87.5597 76.2058-87.5597Q87.089-87.5597 96.5787-83.5105Q106.068-79.4614 113.242-72.2776Q120.416-65.0938 124.496-55.5931Q128.576-46.0924 128.576-35.2511Q128.576-24.4099 124.527-14.9092Q120.478-5.4085 113.315 1.77533Q106.152 8.95916 96.6516 13.0083Q87.1509 17.0574 76.2478 17.0574ZM59.7801 0.763041L92.7972 0.763041Q95.845 0.763041 97.6201-0.991063Q99.3952-2.74517 99.3952-5.87691L99.3952-6.76357Q99.3952-11.5141 96.6563-16.2258Q93.9175-20.9375 90.3068-24.9797Q86.6961-29.0218 84.0461-31.6532Q82.2423-33.457 82.2843-35.3729Q82.3263-37.2887 84.0461-38.9666Q86.6961-41.6166 90.3068-45.6284Q93.9175-49.6403 96.6563-54.373Q99.3952-59.1057 99.3952-63.8982L99.3952-64.6625Q99.3952-67.7942 97.6201-69.5483Q95.845-71.3024 92.7972-71.3024L59.7801-71.3024Q56.6903-71.3024 54.9153-69.5483Q53.1402-67.7942 53.1402-64.6625L53.1402-63.8982Q53.1402-59.1057 55.879-54.373Q58.6178-49.6403 62.2378-45.6284Q65.8578-41.6166 68.4693-38.9666Q70.209-37.2887 70.272-35.3729Q70.3349-33.457 68.4693-31.6532Q65.8578-29.0218 62.2378-24.9797Q58.6178-20.9375 55.879-16.2258Q53.1402-11.5141 53.1402-6.76357L53.1402-5.87691Q53.1402-2.74517 54.9153-0.991063Q56.6903 0.763041 59.7801 0.763041ZM62.964-5.12435Q61.7373-5.12435 61.4187-6.26026Q61.1001-7.39617 61.9622-8.21635L73.3021-19.9088Q73.7737-20.4188 73.9432-20.7251Q74.1127-21.0313 74.1127-21.7332L74.1127-37.7711Q74.1127-40.0585 72.4669-41.6821Q70.5261-43.6419 68.4395-45.7461Q66.353-47.8503 64.6153-49.7664Q63.8115-50.667 64.1027-51.4647Q64.3939-52.2624 65.4899-52.2624L87.0874-52.2624Q88.1215-52.2624 88.4227-51.4647Q88.7238-50.667 87.92-49.7664Q86.1823-47.8503 84.0958-45.7461Q82.0092-43.6419 80.0684-41.6821Q78.4226-40.0585 78.4226-37.7711L78.4226-21.7332Q78.4226-21.0313 78.6014-20.7251Q78.7802-20.4188 79.2332-19.9088L90.5532-8.21635Q91.4538-7.39617 91.1469-6.26026Q90.84-5.12435 89.5514-5.12435Z"/>
  </g>
  <g id="Medium-L" transform="matrix(1 0 0 1 1670.9 1556)">
   <path d="M75.6279 29.11Q88.9106 29.11 100.546 24.0981Q112.182 19.0862 121.078 10.1678Q129.973 1.24944 135.02-10.3864Q140.067-22.0223 140.067-35.2592Q140.067-48.4961 135.02-60.1319Q129.973-71.7678 121.055-80.6862Q112.137-89.6045 100.501-94.6164Q88.8648-99.6283 75.5822-99.6283Q62.3695-99.6283 50.7215-94.6164Q39.0736-89.6045 30.213-80.6862Q21.3525-71.7678 16.3056-60.1319Q11.2588-48.4961 11.2588-35.2592Q11.2588-22.0223 16.3056-10.3864Q21.3525 1.24944 30.2359 10.1678Q39.1193 19.0862 50.7673 24.0981Q62.4152 29.11 75.6279 29.11ZM75.6279 17.9956Q64.5902 17.9956 54.9404 13.8767Q45.2905 9.75784 37.9965 2.4409Q30.7024-4.87605 26.5714-14.5488Q22.4405-24.2215 22.4405-35.2592Q22.4405-46.2969 26.5486-55.9696Q30.6567-65.6423 37.9507-72.9593Q45.2448-80.2762 54.8946-84.3951Q64.5445-88.514 75.5822-88.514Q86.6657-88.514 96.3276-84.3951Q105.989-80.2762 113.294-72.9593Q120.599-65.6423 124.753-55.9696Q128.907-46.2969 128.907-35.2592Q128.907-24.2215 124.788-14.5488Q120.669-4.87605 113.375 2.4409Q106.081 9.75784 96.4083 13.8767Q86.7356 17.9956 75.6279 17.9956ZM58.8076 1.12675L92.5423 1.12675Q95.4866 1.12675 97.212-0.575846Q98.9375-2.27844 98.9375-5.31422L98.9375-6.27216Q98.9375-11.0255 96.1555-15.8051Q93.3735-20.5846 89.656-24.7486Q85.9384-28.9125 83.1152-31.7252Q81.3235-33.5169 81.3693-35.3785Q81.415-37.2401 83.1152-38.8946Q85.9384-41.7178 89.656-45.8536Q93.3735-49.9894 96.1555-54.7919Q98.9375-59.5944 98.9375-64.3934L98.9375-65.2252Q98.9375-68.261 97.212-69.9636Q95.4866-71.6662 92.5423-71.6662L58.8076-71.6662Q55.8176-71.6662 54.0921-69.9636Q52.3667-68.261 52.3667-65.2252L52.3667-64.3934Q52.3667-59.5944 55.1487-54.7919Q57.9307-49.9894 61.6535-45.8536Q65.3762-41.7178 68.1648-38.8946Q69.8892-37.2401 69.9578-35.3785Q70.0264-33.5169 68.1648-31.7252Q65.3762-28.9125 61.6535-24.7486Q57.9307-20.5846 55.1487-15.8051Q52.3667-11.0255 52.3667-6.27216L52.3667-5.31422Q52.3667-2.27844 54.0921-0.575846Q55.8176 1.12675 58.8076 1.12675ZM61.8639-4.36622Q60.6795-4.36622 60.377-5.46624Q60.0745-6.56626 60.9076-7.35369L72.7558-19.5821Q73.1753-20.0362 73.3345-20.3142Q73.4938-20.5923 73.4938-21.1899L73.4938-37.8272Q73.4938-39.9807 71.9403-41.5126Q69.8712-43.622 67.708-45.812Q65.5447-48.0019 63.7121-50.0221Q62.9378-50.8899 63.2164-51.6259Q63.495-52.3619 64.5175-52.3619L86.8325-52.3619Q87.785-52.3619 88.0757-51.6259Q88.3664-50.8899 87.592-50.0221Q85.7594-48.0019 83.5962-45.812Q81.433-43.622 79.3639-41.5126Q77.8104-39.9807 77.8104-37.8272L77.8104-21.1899Q77.8104-20.5923 77.9749-20.3142Q78.1394-20.0362 78.5483-19.5821L90.3724-7.35369Q91.2402-6.56626 90.9553-5.46624Q90.6705-4.36622 89.4161-4.36622Z"/>
  </g>
  <g id="Regular-L" transform="matrix(1 0 0 1 1374.99 1556)">
   <path d="M74.8194 28.2909Q87.9312 28.2909 99.4198 23.3434Q110.908 18.3959 119.697 9.58221Q128.485 0.768476 133.473-10.7201Q138.46-22.2086 138.46-35.2697Q138.46-48.3308 133.473-59.8193Q128.485-71.3079 119.671-80.1216Q110.858-88.9353 99.3691-93.8828Q87.8805-98.8303 74.7687-98.8303Q61.7374-98.8303 50.234-93.8828Q38.7306-88.9353 29.9824-80.1216Q21.2342-71.3079 16.2465-59.8193Q11.2588-48.3308 11.2588-35.2697Q11.2588-22.2086 16.2465-10.7201Q21.2342 0.768476 30.0077 9.58221Q38.7813 18.3959 50.2847 23.3434Q61.7881 28.2909 74.8194 28.2909ZM74.8194 19.2194Q63.5255 19.2194 53.6537 15.0095Q43.7819 10.7996 36.3167 3.30903Q28.8515-4.18154 24.6267-14.0786Q20.402-23.9757 20.402-35.2697Q20.402-46.5637 24.6014-56.4608Q28.8008-66.3579 36.266-73.8484Q43.7313-81.339 53.603-85.5489Q63.4748-89.7588 74.7687-89.7588Q86.1134-89.7588 96-85.5489Q105.887-81.339 113.362-73.8484Q120.838-66.3579 125.088-56.4608Q129.338-46.5637 129.338-35.2697Q129.338-23.9757 125.128-14.0786Q120.918-4.18154 113.453 3.30903Q105.988 10.7996 96.0909 15.0095Q86.1938 19.2194 74.8194 19.2194ZM57.5392 1.60116L92.2098 1.60116Q95.0191 1.60116 96.6798-0.0342581Q98.3406-1.66967 98.3406-4.58029L98.3406-5.63119Q98.3406-10.3881 95.5022-15.2562Q92.6639-20.1244 88.8071-24.4471Q84.9502-28.7699 81.901-31.8192Q80.1251-33.5951 80.1757-35.3859Q80.2264-37.1767 81.901-38.8006Q84.9502-41.8499 88.8071-46.1473Q92.6639-50.4448 95.5022-55.3382Q98.3406-60.2317 98.3406-65.0393L98.3406-65.9591Q98.3406-68.8697 96.6798-70.5051Q95.0191-72.1406 92.2098-72.1406L57.5392-72.1406Q54.6793-72.1406 53.0185-70.5051Q51.3578-68.8697 51.3578-65.9591L51.3578-65.0393Q51.3578-60.2317 54.1961-55.3382Q57.0345-50.4448 60.8913-46.1473Q64.7481-41.8499 67.7676-38.8006Q69.4719-37.1767 69.5479-35.3859Q69.624-33.5951 67.7676-31.8192Q64.7481-28.7699 60.8913-24.4471Q57.0345-20.1244 54.1961-15.2562Q51.3578-10.3881 51.3578-5.63119L51.3578-4.58029Q51.3578-1.66967 53.0185-0.0342581Q54.6793 1.60116 57.5392 1.60116ZM60.4289-3.37734Q59.2996-3.37734 59.0182-4.43055Q58.7367-5.48376 59.5321-6.22848L72.0433-19.156Q72.3947-19.5371 72.5407-19.7784Q72.6866-20.0197 72.6866-20.4812L72.6866-37.9005Q72.6866-39.8792 71.2533-41.2916Q69.017-43.5961 66.7538-45.8979Q64.4905-48.1997 62.534-50.3556Q61.7981-51.1807 62.0603-51.8362Q62.3225-52.4917 63.249-52.4917L86.5-52.4917Q87.3461-52.4917 87.6232-51.8362Q87.9002-51.1807 87.1643-50.3556Q85.2078-48.1997 82.9446-45.8979Q80.6813-43.5961 78.445-41.2916Q77.0117-39.8792 77.0117-37.9005L77.0117-20.4812Q77.0117-20.0197 77.1577-19.7784Q77.3037-19.5371 77.6551-19.156L90.1365-6.22848Q90.9616-5.48376 90.7055-4.43055Q90.4494-3.37734 89.2397-3.37734Z"/>
  </g>
  <g id="Light-L" transform="matrix(1 0 0 1 1079.2 1556)">
   <path d="M73.8959 27.3674Q86.8436 27.3674 98.1577 22.502Q109.472 17.6366 118.137 8.95629Q126.802 0.275949 131.708-11.0381Q136.614-22.3522 136.614-35.2697Q136.614-48.1872 131.708-59.5013Q126.802-70.8154 118.122-79.4957Q109.442-88.176 98.1275-93.0414Q86.8134-97.9069 73.8658-97.9069Q60.9986-97.9069 49.6594-93.0414Q38.3201-88.176 29.6951-79.4957Q21.07-70.8154 16.1644-59.5013Q11.2588-48.1872 11.2588-35.2697Q11.2588-22.3522 16.1644-11.0381Q21.07 0.275949 29.7102 8.95629Q38.3503 17.6366 49.6895 22.502Q61.0287 27.3674 73.8959 27.3674ZM73.8959 20.4712Q62.3557 20.4712 52.2479 16.1587Q42.1402 11.8462 34.4903 4.18122Q26.8403-3.48379 22.5027-13.6066Q18.1651-23.7295 18.1651-35.2697Q18.1651-46.8099 22.4876-56.9328Q26.8102-67.0556 34.4601-74.7206Q42.11-82.3856 52.2178-86.6981Q62.3255-91.0106 73.8658-91.0106Q85.4362-91.0106 95.5691-86.6981Q105.702-82.3856 113.342-74.7206Q120.982-67.0556 125.334-56.9328Q129.687-46.8099 129.687-35.2697Q129.687-23.7295 125.375-13.6066Q121.062-3.48379 113.412 4.18122Q105.762 11.8462 95.6394 16.1587Q85.5166 20.4712 73.8959 20.4712ZM56.1232 1.68324L91.7994 1.68324Q94.3829 1.68324 95.941 0.140179Q97.4992-1.40289 97.4992-4.04672L97.4992-5.32336Q97.4992-9.97767 94.589-14.9587Q91.6788-19.9397 87.6578-24.4985Q83.6368-29.0572 80.2592-32.4348Q78.8116-33.8824 78.8418-35.3552Q78.872-36.8279 80.2592-38.185Q83.6368-41.5626 87.6578-46.1063Q91.6788-50.65 94.589-55.6461Q97.4992-60.6421 97.4992-65.3266L97.4992-66.4927Q97.4992-69.1365 95.941-70.6796Q94.3829-72.2226 91.7994-72.2226L56.1232-72.2226Q53.5095-72.2226 51.9514-70.6796Q50.3932-69.1365 50.3932-66.4927L50.3932-65.3266Q50.3932-60.6421 53.3034-55.6461Q56.2136-50.65 60.2346-46.1063Q64.2556-41.5626 67.5829-38.185Q69.0204-36.8279 69.0657-35.3552Q69.1109-33.8824 67.5829-32.4348Q64.2556-29.0572 60.2346-24.4985Q56.2136-19.9397 53.3034-14.9587Q50.3932-9.97767 50.3932-5.32336L50.3932-4.04672Q50.3932-1.40289 51.9514 0.140179Q53.5095 1.68324 56.1232 1.68324ZM58.7871-2.67959Q57.8221-2.67959 57.5406-3.59941Q57.2591-4.51922 57.993-5.2229L71.2019-19.1355Q71.5738-19.5577 71.7095-19.7989Q71.8452-20.0402 71.8452-20.5428L71.8452-37.5516Q71.8452-39.1199 70.6992-40.286Q68.1962-42.9599 65.7585-45.5183Q63.3207-48.0766 61.1796-50.4992Q60.5463-51.2833 60.7674-51.8362Q60.9886-52.3891 61.833-52.3891L86.0896-52.3891Q86.8536-52.3891 87.0999-51.8362Q87.3461-51.2833 86.7128-50.4992Q84.5717-48.0766 82.1339-45.5183Q79.6962-42.9599 77.1932-40.286Q76.0472-39.1199 76.0472-37.5516L76.0472-20.5428Q76.0472-20.0402 76.1829-19.7989Q76.3186-19.5577 76.6905-19.1355L89.8492-5.2229Q90.6333-4.51922 90.3669-3.59941Q90.1005-2.67959 89.055-2.67959Z"/>
  </g>
  <g id="Thin-L" transform="matrix(1 0 0 1 783.716 1556)">
   <path d="M72.6746 26.1461Q85.405 26.1461 96.4884 21.3892Q107.572 16.6324 116.074 8.12846Q124.577-0.375458 129.374-11.4588Q134.171-22.5422 134.171-35.2697Q134.171-47.9972 129.374-59.0806Q124.577-70.1639 116.073-78.6679Q107.569-87.1718 96.4854-91.9286Q85.402-96.6855 72.6715-96.6855Q60.0215-96.6855 48.8994-91.9286Q37.7773-87.1718 29.3151-78.6679Q20.8529-70.1639 16.0558-59.0806Q11.2588-47.9972 11.2588-35.2697Q11.2588-22.5422 16.0558-11.4588Q20.8529-0.375458 29.3166 8.12846Q37.7803 16.6324 48.9024 21.3892Q60.0245 26.1461 72.6746 26.1461ZM72.6746 22.1269Q60.8086 22.1269 50.3887 17.6787Q39.9688 13.2305 32.0746 5.33475Q24.1804-2.56097 19.6935-12.9824Q15.2066-23.4038 15.2066-35.2697Q15.2066-47.1356 19.692-57.557Q24.1774-67.9784 32.0716-75.8742Q39.9658-83.7699 50.3857-88.2181Q60.8056-92.6663 72.6715-92.6663Q84.5405-92.6663 94.9991-88.2181Q105.458-83.7699 113.315-75.8742Q121.172-67.9784 125.66-57.557Q130.149-47.1356 130.149-35.2697Q130.149-23.4038 125.7-12.9824Q121.252-2.56097 113.358 5.33475Q105.464 13.2305 95.0423 17.6787Q84.6209 22.1269 72.6746 22.1269ZM54.2504 1.79181L91.2565 1.79181Q93.5415 1.79181 94.9639 0.370885Q96.3864-1.05004 96.3864-3.34103L96.3864-4.91623Q96.3864-9.43484 93.3812-14.5651Q90.376-19.6954 86.1379-24.5663Q81.8998-29.4372 78.0879-33.2491Q77.0746-34.2624 77.0776-35.3144Q77.0806-36.3665 78.0879-37.3707Q81.8998-41.1826 86.1379-46.052Q90.376-50.9214 93.3812-56.0532Q96.3864-61.185 96.3864-65.7066L96.3864-67.1984Q96.3864-69.4894 94.9639-70.9103Q93.5415-72.3312 91.2565-72.3312L54.2504-72.3312Q51.9624-72.3312 50.54-70.9103Q49.1176-69.4894 49.1176-67.1984L49.1176-65.7066Q49.1176-61.185 52.1227-56.0532Q55.1279-50.9214 59.366-46.052Q63.6042-41.1826 67.3386-37.3707Q68.4233-36.3665 68.4278-35.3144Q68.4324-34.2624 67.3386-33.2491Q63.6042-29.4372 59.366-24.5663Q55.1279-19.6954 52.1227-14.5651Q49.1176-9.43484 49.1176-4.91623L49.1176-3.34103Q49.1176-1.05004 50.54 0.370885Q51.9624 1.79181 54.2504 1.79181ZM56.6158-1.75677Q55.8678-1.75677 55.5864-2.50016Q55.3049-3.24355 55.9573-3.89295L70.089-19.1083Q70.4881-19.5848 70.6103-19.8261Q70.7324-20.0673 70.7324-20.6242L70.7324-37.0902Q70.7324-38.1156 69.9664-38.956Q67.1105-42.1185 64.4421-45.0161Q61.7737-47.9137 59.3882-50.6892Q58.8906-51.419 59.0575-51.8362Q59.2244-52.2534 59.9602-52.2534L85.5467-52.2534Q86.2022-52.2534 86.4077-51.8362Q86.6133-51.419 86.1157-50.6892Q83.7303-47.9137 81.0618-45.0161Q78.3934-42.1185 75.5375-38.956Q74.7715-38.1156 74.7715-37.0902L74.7715-20.6242Q74.7715-20.0673 74.8936-19.8261Q75.0158-19.5848 75.4149-19.1083L89.4692-3.89295Q90.199-3.24355 89.9191-2.50016Q89.6391-1.75677 88.8108-1.75677Z"/>
  </g>
  <g id="Ultralight-L" transform="matrix(1 0 0 1 487.631 1556)">
   <path d="M72.049 25.5205Q84.6682 25.5205 95.6335 20.8192Q106.599 16.118 115.018 7.70445Q123.437-0.709105 128.178-11.6743Q132.92-22.6395 132.92-35.2697Q132.92-47.8999 128.178-58.8651Q123.437-69.8303 115.023-78.2439Q106.61-86.6574 95.6443-91.3586Q84.6791-96.0599 72.0598-96.0599Q59.521-96.0599 48.5101-91.3586Q37.4993-86.6574 29.1205-78.2439Q20.7417-69.8303 16.0002-58.8651Q11.2588-47.8999 11.2588-35.2697Q11.2588-22.6395 16.0002-11.6743Q20.7417-0.709105 29.115 7.70445Q37.4884 16.118 48.4992 20.8192Q59.5101 25.5205 72.049 25.5205ZM72.049 22.9749Q60.0162 22.9749 49.4364 18.4572Q38.8567 13.9395 30.8374 5.92558Q22.818-2.0883 18.2546-12.6626Q13.6913-23.2369 13.6913-35.2697Q13.6913-47.3025 18.2601-57.8768Q22.8289-68.4511 30.8482-76.465Q38.8676-84.4789 49.4473-88.9966Q60.0271-93.5143 72.0598-93.5143Q84.0817-93.5143 94.7071-88.9966Q105.333-84.4789 113.301-76.465Q121.269-68.4511 125.827-57.8768Q130.385-47.3025 130.385-35.2697Q130.385-23.2369 125.867-12.6626Q121.349-2.0883 113.33 5.92558Q105.311 13.9395 94.7365 18.4572Q84.1621 22.9749 72.049 22.9749ZM53.2912 1.84742L90.9785 1.84742Q93.1105 1.84742 94.4635 0.489052Q95.8164-0.869316 95.8164-2.97957L95.8164-4.7077Q95.8164-9.1568 92.7625-14.3635Q89.7087-19.5703 85.3594-24.6011Q81.01-29.6319 76.9757-33.6662Q76.1848-34.457 76.1739-35.2936Q76.1631-36.1301 76.9757-36.9537Q81.01-40.988 85.3594-46.0242Q89.7087-51.0604 92.7625-56.2617Q95.8164-61.463 95.8164-65.9012L95.8164-67.5598Q95.8164-69.6701 94.4635-71.0285Q93.1105-72.3868 90.9785-72.3868L53.2912-72.3868Q51.17-72.3868 49.8171-71.0285Q48.4642-69.6701 48.4642-67.5598L48.4642-65.9012Q48.4642-61.463 51.518-56.2617Q54.5718-51.0604 58.9212-46.0242Q63.2705-40.988 67.2135-36.9537Q68.1175-36.1301 68.1011-35.2936Q68.0848-34.457 67.2135-33.6662Q63.2705-29.6319 58.9212-24.6011Q54.5718-19.5703 51.518-14.3635Q48.4642-9.1568 48.4642-4.7077L48.4642-2.97957Q48.4642-0.869316 49.8171 0.489052Q51.17 1.84742 53.2912 1.84742ZM55.5036-1.2841Q54.8669-1.2841 54.5854-1.93713Q54.304-2.59016 54.9147-3.21175L69.5191-19.0944Q69.932-19.5987 70.0472-19.84Q70.1624-20.0812 70.1624-20.6659L70.1624-36.8539Q70.1624-37.6013 69.591-38.2748Q66.5544-41.6876 63.7678-44.7589Q60.9812-47.8303 58.4707-50.7865Q58.0426-51.4885 58.1817-51.8362Q58.3207-52.1839 59.001-52.1839L85.2687-52.1839Q85.8685-52.1839 86.0532-51.8362Q86.238-51.4885 85.8099-50.7865Q83.2993-47.8303 80.5127-44.7589Q77.7261-41.6876 74.6895-38.2748Q74.1181-37.6013 74.1181-36.8539L74.1181-20.6659Q74.1181-20.0812 74.2333-19.84Q74.3485-19.5987 74.7615-19.0944L89.2746-3.21175Q89.9766-2.59016 89.6897-1.93713Q89.4028-1.2841 88.6856-1.2841Z"/>
  </g>
  <g id="Black-M" transform="matrix(1 0 0 1 2871.36 1126)">
   <path d="M62.0423 18.1161Q73.0725 18.1161 82.714 13.9613Q92.3555 9.80654 99.704 2.45531Q107.052-4.89592 111.21-14.5374Q115.367-24.1789 115.367-35.2035Q115.367-46.2282 111.21-55.8697Q107.052-65.5112 99.7012-72.8624Q92.35-80.2136 82.7085-84.3684Q73.067-88.5232 62.0368-88.5232Q51.0119-88.5232 41.3705-84.3684Q31.7292-80.2136 24.3833-72.8624Q17.0375-65.5112 12.8801-55.8697Q8.72266-46.2282 8.72266-35.2035Q8.72266-24.1789 12.8801-14.5374Q17.0375-4.89592 24.3861 2.45531Q31.7347 9.80654 41.376 13.9613Q51.0174 18.1161 62.0423 18.1161ZM62.0423 0.734266Q54.6003 0.734266 48.0771-2.06802Q41.554-4.87031 36.637-9.78999Q31.7201-14.7097 28.918-21.2356Q26.1159-27.7615 26.1159-35.2035Q26.1159-42.6456 28.9152-49.1715Q31.7146-55.6974 36.6315-60.6171Q41.5485-65.5368 48.0716-68.3391Q54.5948-71.1414 62.0368-71.1414Q69.4844-71.1414 76.0074-68.3391Q82.5304-65.5368 87.4502-60.6171Q92.3701-55.6974 95.175-49.1715Q97.9799-42.6456 97.9799-35.2035Q97.9799-27.7615 95.1776-21.2356Q92.3753-14.7097 87.4584-9.78999Q82.5414-4.87031 76.0155-2.06802Q69.4896 0.734266 62.0423 0.734266ZM50.9849-9.24376L73.1047-9.24376Q75.9376-9.24376 77.5408-10.8442Q79.1441-12.4447 79.1441-15.2886L79.1441-15.6747Q79.1441-19.3055 77.2266-22.6347Q75.3091-25.9638 73.0217-28.5305Q70.7343-31.0972 69.4877-32.2867Q68.138-33.6365 68.1435-35.3001Q68.149-36.9637 69.4877-38.2969Q70.7343-39.5435 73.0217-42.0789Q75.3091-44.6143 77.2266-47.9462Q79.1441-51.2781 79.1441-54.9144L79.1441-55.2327Q79.1441-58.0766 77.5408-59.6771Q75.9376-61.2775 73.1047-61.2775L50.9849-61.2775Q48.1465-61.2775 46.5432-59.6771Q44.94-58.0766 44.94-55.2327L44.94-54.9144Q44.94-51.2781 46.8575-47.9462Q48.7749-44.6143 51.0909-42.0789Q53.4068-39.5435 54.5967-38.2969Q55.9351-36.9637 55.9434-35.3001Q55.9516-33.6365 54.5967-32.2867Q53.4068-31.0972 51.0909-28.5305Q48.7749-25.9638 46.8575-22.6347Q44.94-19.3055 44.94-15.6747L44.94-15.2886Q44.94-12.4447 46.5432-10.8442Q48.1465-9.24376 50.9849-9.24376ZM54.0514-15.6853Q52.9327-15.6853 52.6004-16.7101Q52.2681-17.7349 53.0686-18.5299L59.3985-25.0839Q60.0471-25.7892 60.2289-26.176Q60.4108-26.5627 60.4108-27.673L60.4108-36.7822Q60.4108-39.1246 58.7451-40.7844Q57.8299-41.6358 56.5604-42.8989Q55.2909-44.162 54.3849-45.1862Q53.6409-46.0434 53.9193-46.9535Q54.1976-47.8635 55.4085-47.8635L68.6811-47.8635Q69.8867-47.8635 70.165-46.9535Q70.4432-46.0434 69.6992-45.1862Q68.7932-44.162 67.5237-42.8989Q66.2541-41.6358 65.3389-40.7844Q63.6733-39.1246 63.6733-36.7822L63.6733-27.673Q63.6733-26.5627 63.8837-26.176Q64.0941-25.7892 64.6856-25.0839L71.0158-18.5299Q71.873-17.7349 71.515-16.7101Q71.1569-15.6853 70.033-15.6853Z"/>
  </g>
  <g id="Heavy-M" transform="matrix(1 0 0 1 2575.48 1126)">
   <path d="M61.2045 17.2648Q72.0509 17.2648 81.541 13.1749Q91.0312 9.08498 98.2688 1.83921Q105.506-5.40657 109.606-14.8967Q113.705-24.3868 113.705-35.217Q113.705-46.0473 109.606-55.5374Q105.506-65.0275 98.2607-72.2733Q91.0149-79.519 81.5248-83.6089Q72.0347-87.6988 61.1882-87.6988Q50.3604-87.6988 40.8691-83.6089Q31.3778-79.519 24.1495-72.2733Q16.9211-65.0275 12.8219-55.5374Q8.72266-46.0473 8.72266-35.217Q8.72266-24.3868 12.8219-14.8967Q16.9211-5.40657 24.1576 1.83921Q31.394 9.08498 40.8853 13.1749Q50.3767 17.2648 61.2045 17.2648ZM61.2045 2.03385Q53.4869 2.03385 46.73-0.86303Q39.9731-3.75991 34.8765-8.86466Q29.7798-13.9694 26.8817-20.7344Q23.9836-27.4994 23.9836-35.217Q23.9836-42.9346 26.8736-49.6996Q29.7636-56.4646 34.8602-61.5694Q39.9568-66.6741 46.7137-69.571Q53.4706-72.4679 61.1882-72.4679Q68.922-72.4679 75.6802-69.571Q82.4383-66.6741 87.5418-61.5694Q92.6453-56.4646 95.5516-49.6996Q98.4578-42.9346 98.4578-35.217Q98.4578-27.4994 95.5609-20.7344Q92.664-13.9694 87.5674-8.86466Q82.4708-3.75991 75.7057-0.86303Q68.9407 2.03385 61.2045 2.03385ZM49.6633-8.65335L72.7668-8.65335Q75.4751-8.65335 77.0174-10.1875Q78.5597-11.7217 78.5597-14.4625L78.5597-14.9193Q78.5597-18.5768 76.5855-21.9952Q74.6112-25.4135 72.1806-28.1331Q69.7499-30.8527 68.2841-32.2749Q66.884-33.675 66.9003-35.3162Q66.9165-36.9574 68.2841-38.3087Q69.7499-39.7745 72.1806-42.4642Q74.6112-45.1538 76.5855-48.5803Q78.5597-52.0068 78.5597-55.6805L78.5597-56.0587Q78.5597-58.7996 77.0174-60.3337Q75.4751-61.8679 72.7668-61.8679L49.6633-61.8679Q46.9387-61.8679 45.3964-60.3337Q43.8541-58.7996 43.8541-56.0587L43.8541-55.6805Q43.8541-52.0068 45.8283-48.5803Q47.8026-45.1538 50.2551-42.4642Q52.7076-39.7745 54.1273-38.3087Q55.4973-36.9574 55.5217-35.3162Q55.546-33.675 54.1273-32.2749Q52.7076-30.8527 50.2551-28.1331Q47.8026-25.4135 45.8283-21.9952Q43.8541-18.5768 43.8541-14.9193L43.8541-14.4625Q43.8541-11.7217 45.3964-10.1875Q46.9387-8.65335 49.6633-8.65335ZM52.5648-14.5678Q51.4816-14.5678 51.1762-15.5612Q50.8709-16.5547 51.6362-17.3037L58.6659-24.5421Q59.2229-25.1452 59.3899-25.4848Q59.557-25.8244 59.557-26.7515L59.557-36.951Q59.557-39.1576 57.9837-40.7171Q56.9115-41.7392 55.5512-43.0906Q54.1909-44.442 53.1659-45.5827Q52.4491-46.394 52.7152-47.223Q52.9814-48.0519 54.0869-48.0519L68.3431-48.0519Q69.43-48.0519 69.6973-47.223Q69.9647-46.394 69.248-45.5827Q68.2229-44.442 66.8626-43.0906Q65.5023-41.7392 64.4301-40.7171Q62.8569-39.1576 62.8569-36.951L62.8569-26.7515Q62.8569-25.8244 63.0457-25.4848Q63.2345-25.1452 63.7479-24.5421L70.7752-17.3037Q71.5865-16.5547 71.2675-15.5612Q70.9485-14.5678 69.8466-14.5678Z"/>
  </g>
  <g id="Bold-M" transform="matrix(1 0 0 1 2279.69 1126)">
   <path d="M60.2672 16.3124Q70.9082 16.3124 80.2289 12.2951Q89.5497 8.27781 96.6634 1.15Q103.777-5.9778 107.811-15.2986Q111.845-24.6193 111.845-35.2321Q111.845-45.8449 107.811-55.1656Q103.777-64.4864 96.6493-71.6142Q89.5215-78.742 80.2007-82.7593Q70.8799-86.7766 60.2389-86.7766Q49.6317-86.7766 40.3082-82.7593Q30.9846-78.742 23.8878-71.6142Q16.791-64.4864 12.7568-55.1656Q8.72266-45.8449 8.72266-35.2321Q8.72266-24.6193 12.7568-15.2986Q16.791-5.9778 23.902 1.15Q31.0129 8.27781 40.3364 12.2951Q49.6599 16.3124 60.2672 16.3124ZM60.2672 3.48763Q52.2414 3.48763 45.223 0.484927Q38.2046-2.51777 32.907-7.82954Q27.6093-13.1413 24.6039-20.1738Q21.5984-27.2063 21.5984-35.2321Q21.5984-43.2579 24.5897-50.2904Q27.5811-57.3229 32.8787-62.6347Q38.1764-67.9464 45.1948-70.9491Q52.2131-73.9518 60.2389-73.9518Q68.293-73.9518 75.3141-70.9491Q82.3352-67.9464 87.6443-62.6347Q92.9533-57.3229 95.9728-50.2904Q98.9924-43.2579 98.9924-35.2321Q98.9924-27.2063 95.9897-20.1738Q92.987-13.1413 87.6894-7.82954Q82.3917-2.51777 75.3592 0.484927Q68.3267 3.48763 60.2672 3.48763ZM48.1849-7.99289L72.3887-7.99289Q74.9577-7.99289 76.4319-9.45295Q77.9061-10.913 77.9061-13.5385L77.9061-14.0743Q77.9061-17.7616 75.8683-21.2798Q73.8305-24.798 71.2396-27.6886Q68.6486-30.5792 66.9377-32.2616Q65.4813-33.718 65.5096-35.3342Q65.5378-36.9503 66.9377-38.322Q68.6486-40.0329 71.2396-42.8951Q73.8305-45.7574 75.8683-49.2897Q77.9061-52.822 77.9061-56.5375L77.9061-56.9828Q77.9061-59.6083 76.4319-61.0683Q74.9577-62.5284 72.3887-62.5284L48.1849-62.5284Q45.5877-62.5284 44.1135-61.0683Q42.6393-59.6083 42.6393-56.9828L42.6393-56.5375Q42.6393-52.822 44.6771-49.2897Q46.7149-45.7574 49.3201-42.8951Q51.9253-40.0329 53.6022-38.322Q55.0076-36.9503 55.0499-35.3342Q55.0923-33.718 53.6022-32.2616Q51.9253-30.5792 49.3201-27.6886Q46.7149-24.798 44.6771-21.2798Q42.6393-17.7616 42.6393-14.0743L42.6393-13.5385Q42.6393-10.913 44.1135-9.45295Q45.5877-7.99289 48.1849-7.99289ZM50.9019-13.3176Q49.8583-13.3176 49.5831-14.276Q49.308-15.2344 50.0338-15.932L57.8464-23.9361Q58.301-24.4248 58.4514-24.7116Q58.6018-24.9984 58.6018-25.7207L58.6018-37.1399Q58.6018-39.1945 57.1319-40.6417Q55.8841-41.8549 54.4223-43.305Q52.9605-44.7551 51.8022-46.0263Q51.1159-46.7863 51.3684-47.5244Q51.6208-48.2626 52.6085-48.2626L67.9651-48.2626Q68.919-48.2626 69.1743-47.5244Q69.4295-46.7863 68.7432-46.0263Q67.5849-44.7551 66.1231-43.305Q64.6613-41.8549 63.4135-40.6417Q61.9436-39.1945 61.9436-37.1399L61.9436-25.7207Q61.9436-24.9984 62.1082-24.7116Q62.2729-24.4248 62.6989-23.9361L70.506-15.932Q71.266-15.2344 70.9907-14.276Q70.7153-13.3176 69.638-13.3176Z"/>
  </g>
  <g id="Semibold-M" transform="matrix(1 0 0 1 1983.62 1126)">
   <path d="M59.621 15.6559Q70.1203 15.6559 79.3244 11.6886Q88.5284 7.72135 95.5566 0.674869Q102.585-6.37161 106.574-15.5756Q110.564-24.7797 110.564-35.2425Q110.564-45.7053 106.574-54.9093Q102.585-64.1134 95.5384-71.1598Q88.4919-78.2063 79.2879-82.1736Q70.0838-86.1408 59.5845-86.1408Q49.1293-86.1408 39.9215-82.1736Q30.7136-78.2063 23.7075-71.1598Q16.7013-64.1134 12.712-54.9093Q8.72266-45.7053 8.72266-35.2425Q8.72266-24.7797 12.712-15.5756Q16.7013-6.37161 23.7257 0.674869Q30.7501 7.72135 39.958 11.6886Q49.1658 15.6559 59.621 15.6559ZM59.621 4.48985Q51.3827 4.48985 44.1841 1.4142Q36.9855-1.66145 31.5492-7.11594Q26.113-12.5704 23.0335-19.7873Q19.954-27.0042 19.954-35.2425Q19.954-43.4808 23.0153-50.6977Q26.0765-57.9145 31.5127-63.369Q36.9489-68.8235 44.1476-71.8992Q51.3462-74.9748 59.5845-74.9748Q67.8593-74.9748 75.0618-71.8992Q82.2642-68.8235 87.7149-63.369Q93.1655-57.9145 96.2633-50.6977Q99.361-43.4808 99.361-35.2425Q99.361-27.0042 96.2853-19.7873Q93.2097-12.5704 87.7735-7.11594Q82.3372-1.66145 75.1203 1.4142Q67.9035 4.48985 59.621 4.48985ZM47.1657-7.53758L72.1281-7.53758Q74.601-7.53758 76.0282-8.94652Q77.4554-10.3555 77.4554-12.9014L77.4554-13.4917Q77.4554-17.1996 75.3739-20.7866Q73.2923-24.3736 70.5909-27.3822Q67.8895-30.3907 66.0095-32.2525Q64.5143-33.7477 64.5508-35.3466Q64.5873-36.9454 66.0095-38.3311Q67.8895-40.211 70.5909-43.1923Q73.2923-46.1735 75.3739-49.7787Q77.4554-53.3839 77.4554-57.1284L77.4554-57.6199Q77.4554-60.1658 76.0282-61.5748Q74.601-62.9837 72.1281-62.9837L47.1657-62.9837Q44.6563-62.9837 43.2291-61.5748Q41.8019-60.1658 41.8019-57.6199L41.8019-57.1284Q41.8019-53.3839 43.8834-49.7787Q45.965-46.1735 48.6755-43.1923Q51.386-40.211 53.2402-38.3311Q54.67-36.9454 54.7247-35.3466Q54.7795-33.7477 53.2402-32.2525Q51.386-30.3907 48.6755-27.3822Q45.965-24.3736 43.8834-20.7866Q41.8019-17.1996 41.8019-13.4917L41.8019-12.9014Q41.8019-10.3555 43.2291-8.94652Q44.6563-7.53758 47.1657-7.53758ZM49.7554-12.4558Q48.7392-12.4558 48.4848-13.39Q48.2305-14.3242 48.9292-14.9864L57.2815-23.5183Q57.6655-23.9281 57.8044-24.1785Q57.9434-24.429 57.9434-25.01L57.9434-37.2701Q57.9434-39.22 56.5447-40.5898Q55.1758-41.9346 53.644-43.4528Q52.1122-44.971 50.8621-46.3321Q50.1968-47.0567 50.4398-47.7323Q50.6829-48.4079 51.5894-48.4079L67.7045-48.4079Q68.5668-48.4079 68.8136-47.7323Q69.0605-47.0567 68.3952-46.3321Q67.1451-44.971 65.6133-43.4528Q64.0815-41.9346 62.7126-40.5898Q61.3139-39.22 61.3139-37.2701L61.3139-25.01Q61.3139-24.429 61.462-24.1785Q61.61-23.9281 61.9758-23.5183L70.3205-14.9864Q71.045-14.3242 70.7998-13.39Q70.5546-12.4558 69.4942-12.4558Z"/>
  </g>
  <g id="Medium-M" transform="matrix(1 0 0 1 1687.4 1126)">
   <path d="M59.1311 15.158Q69.523 15.158 78.6385 11.2287Q87.754 7.29942 94.7174 0.314603Q101.681-6.67021 105.636-15.7857Q109.591-24.9012 109.591-35.2504Q109.591-45.5995 105.636-54.715Q101.681-63.8305 94.696-70.8153Q87.7112-77.8002 78.5957-81.7295Q69.4802-85.6588 59.0883-85.6588Q48.7484-85.6588 39.6283-81.7295Q30.5081-77.8002 23.5707-70.8153Q16.6333-63.8305 12.678-54.715Q8.72266-45.5995 8.72266-35.2504Q8.72266-24.9012 12.678-15.7857Q16.6333-6.67021 23.5921 0.314603Q30.5509 7.29942 39.671 11.2287Q48.7912 15.158 59.1311 15.158ZM59.1311 5.24978Q50.7316 5.24978 43.3963 2.11881Q36.061-1.01215 30.5197-6.57486Q24.9784-12.1376 21.8428-19.4943Q18.7072-26.8509 18.7072-35.2504Q18.7072-43.6498 21.8214-51.0065Q24.9356-58.3632 30.4769-63.9259Q36.0183-69.4886 43.3536-72.6195Q50.6889-75.7505 59.0883-75.7505Q67.5305-75.7505 74.8704-72.6195Q82.2103-69.4886 87.7684-63.9259Q93.3265-58.3632 96.4835-51.0065Q99.6405-43.6498 99.6405-35.2504Q99.6405-26.8509 96.5095-19.4943Q93.3785-12.1376 87.8372-6.57486Q82.2959-1.01215 74.9392 2.11881Q67.5825 5.24978 59.1311 5.24978ZM46.3929-7.19233L71.9305-7.19233Q74.3306-7.19233 75.7221-8.56253Q77.1137-9.93272 77.1137-12.4184L77.1137-13.05Q77.1137-16.7735 74.999-20.4127Q72.8842-24.0519 70.099-27.1498Q67.3138-30.2477 65.3057-32.2456Q63.7811-33.7702 63.8239-35.356Q63.8666-36.9417 65.3057-38.338Q67.3138-40.3461 70.099-43.4175Q72.8842-46.489 74.999-50.1495Q77.1137-53.8101 77.1137-57.5764L77.1137-58.1029Q77.1137-60.5886 75.7221-61.9588Q74.3306-63.329 71.9305-63.329L46.3929-63.329Q43.9501-63.329 42.5585-61.9588Q41.1669-60.5886 41.1669-58.1029L41.1669-57.5764Q41.1669-53.8101 43.2817-50.1495Q45.3964-46.489 48.1867-43.4175Q50.9771-40.3461 52.9657-38.338Q54.414-36.9417 54.4782-35.356Q54.5423-33.7702 52.9657-32.2456Q50.9771-30.2477 48.1867-27.1498Q45.3964-24.0519 43.2817-20.4127Q41.1669-16.7735 41.1669-13.05L41.1669-12.4184Q41.1669-9.93272 42.5585-8.56253Q43.9501-7.19233 46.3929-7.19233ZM48.8862-11.8023Q47.8907-11.8023 47.6521-12.7182Q47.4135-13.6341 48.0916-14.2694L56.8531-23.2016Q57.1836-23.5515 57.3138-23.7744Q57.4441-23.9973 57.4441-24.4712L57.4441-37.3689Q57.4441-39.2393 56.0994-40.5504Q54.6387-41.9951 53.0539-43.5649Q51.469-45.1347 50.1493-46.564Q49.4999-47.2617 49.7358-47.8899Q49.9717-48.5181 50.8166-48.5181L67.5068-48.5181Q68.2997-48.5181 68.5402-47.8899Q68.7807-47.2617 68.1313-46.564Q66.8116-45.1347 65.2268-43.5649Q63.6419-41.9951 62.1812-40.5504Q60.8365-39.2393 60.8365-37.3689L60.8365-24.4712Q60.8365-23.9973 60.9719-23.7744Q61.1073-23.5515 61.4275-23.2016L70.1798-14.2694Q70.8774-13.6341 70.6551-12.7182Q70.4327-11.8023 69.3852-11.8023Z"/>
  </g>
  <g id="Regular-M" transform="matrix(1 0 0 1 1391.32 1126)">
   <path d="M58.492 14.5087Q68.7438 14.5087 77.7439 10.6289Q86.7439 6.74907 93.6228-0.155309Q100.502-7.05969 104.413-16.0597Q108.324-25.0598 108.324-35.2606Q108.324-45.4615 104.413-54.4616Q100.502-63.4616 93.5973-70.366Q86.693-77.2704 77.6929-81.1502Q68.6929-85.03 58.441-85.03Q48.2515-85.03 39.2458-81.1502Q30.2401-77.2704 23.3923-70.366Q16.5446-63.4616 12.6336-54.4616Q8.72266-45.4615 8.72266-35.2606Q8.72266-25.0598 12.6336-16.0597Q16.5446-7.05969 23.4178-0.155309Q30.291 6.74907 39.2968 10.6289Q48.3025 14.5087 58.492 14.5087ZM58.492 6.24099Q49.8824 6.24099 42.3688 3.03788Q34.8553-0.165238 29.1769-5.86909Q23.4985-11.573 20.2897-19.112Q17.0809-26.6511 17.0809-35.2606Q17.0809-43.8702 20.2642-51.4093Q23.4476-58.9483 29.1259-64.6522Q34.8043-70.3561 42.3179-73.5592Q49.8315-76.7623 58.441-76.7623Q67.1016-76.7623 74.6208-73.5592Q82.1401-70.3561 87.8383-64.6522Q93.5364-58.9483 96.7707-51.4093Q100.005-43.8702 100.005-35.2606Q100.005-26.6511 96.8019-19.112Q93.5988-11.573 87.9204-5.86909Q82.242-0.165238 74.7029 3.03788Q67.1639 6.24099 58.492 6.24099ZM45.3849-6.74202L71.6727-6.74202Q73.9778-6.74202 75.3229-8.06167Q76.668-9.38132 76.668-11.7883L76.668-12.4739Q76.668-16.2177 74.51-19.9249Q72.3519-23.6322 69.4574-26.8467Q66.563-30.0613 64.3877-32.2366Q62.8247-33.7996 62.8756-35.3682Q62.9266-36.9369 64.3877-38.347Q66.563-40.5223 69.4574-43.7114Q72.3519-46.9005 74.51-50.6332Q76.668-54.3659 76.668-58.1607L76.668-58.733Q76.668-61.14 75.3229-62.4596Q73.9778-63.7793 71.6727-63.7793L45.3849-63.7793Q43.0289-63.7793 41.6838-62.4596Q40.3386-61.14 40.3386-58.733L40.3386-58.1607Q40.3386-54.3659 42.4967-50.6332Q44.6548-46.9005 47.5493-43.7114Q50.4437-40.5223 52.6077-38.347Q54.0801-36.9369 54.1565-35.3682Q54.233-33.7996 52.6077-32.2366Q50.4437-30.0613 47.5493-26.8467Q44.6548-23.6322 42.4967-19.9249Q40.3386-16.2177 40.3386-12.4739L40.3386-11.7883Q40.3386-9.38132 41.6838-8.06167Q43.0289-6.74202 45.3849-6.74202ZM47.7523-10.9499Q46.7839-10.9499 46.5659-11.8419Q46.3478-12.7339 46.9991-13.3342L56.2944-22.7884Q56.555-23.0603 56.6739-23.2472Q56.7929-23.4341 56.7929-23.7683L56.7929-37.4977Q56.7929-39.2645 55.5187-40.4991Q53.9382-42.074 52.2841-43.7111Q50.6301-45.3482 49.2196-46.8664Q48.5909-47.5291 48.8175-48.0954Q49.044-48.6617 49.8086-48.6617L67.2491-48.6617Q67.9513-48.6617 68.1835-48.0954Q68.4157-47.5291 67.7871-46.8664Q66.3766-45.3482 64.7226-43.7111Q63.0685-42.074 61.488-40.4991Q60.2138-39.2645 60.2138-37.4977L60.2138-23.7683Q60.2138-23.4341 60.3328-23.2472Q60.4517-23.0603 60.7123-22.7884L69.9962-13.3342Q70.6589-12.7339 70.4663-11.8419Q70.2737-10.9499 69.243-10.9499Z"/>
  </g>
  <g id="Light-M" transform="matrix(1 0 0 1 1095.44 1126)">
   <path d="M57.664 13.6807Q67.7687 13.6807 76.6123 9.87453Q85.456 6.06831 92.2245-0.716478Q98.993-7.50127 102.83-16.3449Q106.668-25.1886 106.668-35.2606Q106.668-45.3327 102.83-54.1764Q98.993-63.02 92.2082-69.8048Q85.4234-76.5896 76.5798-80.3958Q67.7361-84.202 57.6315-84.202Q47.5892-84.202 38.7306-80.3958Q29.8721-76.5896 23.1348-69.8048Q16.3974-63.02 12.56-54.1764Q8.72266-45.3327 8.72266-35.2606Q8.72266-25.1886 12.56-16.3449Q16.3974-7.50127 23.151-0.716478Q29.9047 6.06831 38.7632 9.87453Q47.6217 13.6807 57.664 13.6807ZM57.664 7.36333Q48.8337 7.36333 41.1085 4.06822Q33.3833 0.773111 27.5394-5.08714Q21.6954-10.9474 18.3854-18.6888Q15.0755-26.4303 15.0755-35.2606Q15.0755-44.091 18.3692-51.8325Q21.6629-59.5739 27.5068-65.4342Q33.3508-71.2944 41.076-74.5895Q48.8011-77.8846 57.6315-77.8846Q66.4944-77.8846 74.2345-74.5895Q81.9745-71.2944 87.8199-65.4342Q93.6652-59.5739 96.9915-51.8325Q100.318-44.091 100.318-35.2606Q100.318-26.4303 97.0227-18.6888Q93.7275-10.9474 87.8836-5.08714Q82.0396 0.773111 74.2982 4.06822Q66.5567 7.36333 57.664 7.36333ZM44.1154-6.66843L71.3047-6.66843Q73.4074-6.66843 74.6606-7.90528Q75.9137-9.14213 75.9137-11.3099L75.9137-12.1979Q75.9137-15.8497 73.6912-19.6582Q71.4688-23.4666 68.4271-26.8927Q65.3854-30.3189 62.9158-32.7885Q61.6471-34.0571 61.6797-35.3406Q61.7123-36.6241 62.9158-37.7951Q65.3854-40.2647 68.4271-43.6746Q71.4688-47.0845 73.6912-50.9092Q75.9137-54.7339 75.9137-58.4183L75.9137-59.2113Q75.9137-61.3792 74.6606-62.616Q73.4074-63.8529 71.3047-63.8529L44.1154-63.8529Q41.9802-63.8529 40.727-62.616Q39.4739-61.3792 39.4739-59.2113L39.4739-58.4183Q39.4739-54.7339 41.6964-50.9092Q43.9188-47.0845 46.9605-43.6746Q50.0022-40.2647 52.4421-37.7951Q53.6753-36.6241 53.7242-35.3406Q53.773-34.0571 52.4421-32.7885Q50.0022-30.3189 46.9605-26.8927Q43.9188-23.4666 41.6964-19.6582Q39.4739-15.8497 39.4739-12.1979L39.4739-11.3099Q39.4739-9.14213 40.727-7.90528Q41.9802-6.66843 44.1154-6.66843ZM46.2804-10.3243Q45.4592-10.3243 45.2411-11.0967Q45.0231-11.8691 45.6192-12.4327L55.5401-22.77Q55.819-23.0787 55.9288-23.2656Q56.0385-23.4525 56.0385-23.8235L56.0385-37.1849Q56.0385-38.5837 55.0219-39.5975Q53.2022-41.5036 51.3918-43.3707Q49.5813-45.2378 48.0052-46.9952Q47.4686-47.6211 47.6583-48.0954Q47.8481-48.5697 48.539-48.5697L66.8811-48.5697Q67.5098-48.5697 67.7144-48.0954Q67.919-47.6211 67.3823-46.9952Q65.8062-45.2378 63.9958-43.3707Q62.1854-41.5036 60.3657-39.5975Q59.3491-38.5837 59.3491-37.1849L59.3491-23.8235Q59.3491-23.4525 59.4588-23.2656Q59.5686-23.0787 59.8475-22.77L69.7387-12.4327Q70.3645-11.8691 70.1627-11.0967Q69.9609-10.3243 69.0774-10.3243Z"/>
  </g>
  <g id="Thin-M" transform="matrix(1 0 0 1 799.828 1126)">
   <path d="M56.569 12.5857Q66.479 12.5857 75.1158 8.87683Q83.7526 5.16794 90.3751-1.45867Q96.9976-8.08529 100.738-16.7221Q104.478-25.3589 104.478-35.2606Q104.478-45.1624 100.738-53.7992Q96.9976-62.436 90.371-69.0626Q83.7444-75.6892 75.1076-79.3981Q66.4707-83.107 56.5608-83.107Q46.7131-83.107 38.0493-79.3981Q29.3854-75.6892 22.7941-69.0626Q16.2027-62.436 12.4627-53.7992Q8.72266-45.1624 8.72266-35.2606Q8.72266-25.3589 12.4627-16.7221Q16.2027-8.08529 22.7982-1.45867Q29.3936 5.16794 38.0575 8.87683Q46.7214 12.5857 56.569 12.5857ZM56.569 8.84771Q47.4466 8.84771 39.4416 5.43093Q31.4366 2.01415 25.3736-4.05293Q19.3107-10.12 15.8668-18.1291Q12.423-26.1383 12.423-35.2606Q12.423-44.383 15.8627-52.3921Q19.3024-60.4013 25.3654-66.4684Q31.4284-72.5354 39.4334-75.9522Q47.4384-79.369 56.5608-79.369Q65.6914-79.369 73.7234-75.9522Q81.7555-72.5354 87.7955-66.4684Q93.8356-60.4013 97.2835-52.3921Q100.731-44.383 100.731-35.2606Q100.731-26.1383 97.3147-18.1291Q93.8979-10.12 87.8349-4.05293Q81.7719 2.01415 73.7628 5.43093Q65.7537 8.84771 56.569 8.84771ZM42.4364-6.57109L70.818-6.57109Q72.6531-6.57109 73.7845-7.69844Q74.916-8.82579 74.916-10.6773L74.916-11.8329Q74.916-15.3631 72.6084-19.3053Q70.3007-23.2476 67.0644-26.9536Q63.828-30.6595 60.969-33.5185Q60.0898-34.3978 60.098-35.3041Q60.1062-36.2105 60.969-37.065Q63.828-39.9241 67.0644-43.6259Q70.3007-47.3278 72.6084-51.2742Q74.916-55.2205 74.916-58.759L74.916-59.844Q74.916-61.6955 73.7845-62.8229Q72.6531-63.9502 70.818-63.9502L42.4364-63.9502Q40.5931-63.9502 39.4617-62.8229Q38.3302-61.6955 38.3302-59.844L38.3302-58.759Q38.3302-55.2205 40.6378-51.2742Q42.9455-47.3278 46.1818-43.6259Q49.4181-39.9241 52.2231-37.065Q53.14-36.2105 53.1523-35.3041Q53.1646-34.3978 52.2231-33.5185Q49.4181-30.6595 46.1818-26.9536Q42.9455-23.2476 40.6378-19.3053Q38.3302-15.3631 38.3302-11.8329L38.3302-10.6773Q38.3302-8.82579 39.4617-7.69844Q40.5931-6.57109 42.4364-6.57109ZM44.3337-9.49698Q43.7071-9.49698 43.4891-10.1112Q43.271-10.7254 43.7941-11.2403L54.5424-22.7456Q54.8457-23.103 54.9432-23.2899Q55.0408-23.4768 55.0408-23.8965L55.0408-36.7712Q55.0408-37.6834 54.3649-38.4051Q52.2289-40.7493 50.2116-42.9205Q48.1943-45.0918 46.3992-47.1656Q45.9842-47.7428 46.1253-48.0954Q46.2663-48.4481 46.86-48.4481L66.3944-48.4481Q66.9257-48.4481 67.0939-48.0954Q67.262-47.7428 66.847-47.1656Q65.0519-45.0918 63.0346-42.9205Q61.0173-40.7493 58.8813-38.4051Q58.2054-37.6834 58.2054-36.7712L58.2054-23.8965Q58.2054-23.4768 58.303-23.2899Q58.4005-23.103 58.7038-22.7456L69.398-11.2403Q69.9752-10.7254 69.7612-10.1112Q69.5473-9.49698 68.8584-9.49698Z"/>
  </g>
  <g id="Ultralight-M" transform="matrix(1 0 0 1 503.679 1126)">
   <path d="M56.0081 12.0248Q65.8184 12.0248 74.3492 8.36581Q82.8801 4.70678 89.4278-1.83882Q95.9756-8.38442 99.6657-16.9153Q103.356-25.4462 103.356-35.2606Q103.356-45.0751 99.6657-53.606Q95.9756-62.1369 89.43-68.6825Q82.8844-75.2281 74.3535-78.8871Q65.8226-82.5461 56.0124-82.5461Q46.2644-82.5461 37.7003-78.8871Q29.1361-75.2281 22.6196-68.6825Q16.103-62.1369 12.4128-53.606Q8.72266-45.0751 8.72266-35.2606Q8.72266-25.4462 12.4128-16.9153Q16.103-8.38442 22.6175-1.83882Q29.1319 4.70678 37.6961 8.36581Q46.2602 12.0248 56.0081 12.0248ZM56.0081 9.60801Q46.7362 9.60801 38.5878 6.12891Q30.4395 2.64981 24.2644-3.52322Q18.0892-9.69625 14.5768-17.8425Q11.0645-25.9887 11.0645-35.2606Q11.0645-44.5326 14.579-52.6788Q18.0934-60.825 24.2686-66.9981Q30.4437-73.1711 38.5921-76.6502Q46.7404-80.1293 56.0124-80.1293Q65.2801-80.1293 73.4617-76.6502Q81.6433-73.1711 87.7831-66.9981Q93.9228-60.825 97.4331-52.6788Q100.943-44.5326 100.943-35.2606Q100.943-25.9887 97.4642-17.8425Q93.9851-9.69625 87.81-3.52322Q81.6348 2.64981 73.4886 6.12891Q65.3424 9.60801 56.0081 9.60801ZM41.5764-6.52123L70.5688-6.52123Q72.2667-6.52123 73.3358-7.5925Q74.405-8.66376 74.405-10.3532L74.405-11.6459Q74.405-15.1138 72.0537-19.1246Q69.7025-23.1354 66.3664-26.9847Q63.0304-30.834 59.9719-33.8925Q59.2921-34.5723 59.2878-35.2854Q59.2836-35.9986 59.9719-36.6911Q63.0304-39.7496 66.3664-43.601Q69.7025-47.4524 72.0537-51.4611Q74.405-55.4698 74.405-58.9334L74.405-60.1681Q74.405-61.8575 73.3358-62.9288Q72.2667-64.0001 70.5688-64.0001L41.5764-64.0001Q39.8827-64.0001 38.8135-62.9288Q37.7444-61.8575 37.7444-60.1681L37.7444-58.9334Q37.7444-55.4698 40.0956-51.4611Q42.4469-47.4524 45.783-43.601Q49.119-39.7496 52.1109-36.6911Q52.8658-35.9986 52.8594-35.2854Q52.853-34.5723 52.1109-33.8925Q49.119-30.834 45.783-26.9847Q42.4469-23.1354 40.0956-19.1246Q37.7444-15.1138 37.7444-11.6459L37.7444-10.3532Q37.7444-8.66376 38.8135-7.5925Q39.8827-6.52123 41.5764-6.52123ZM43.3366-9.07321Q42.8097-9.07321 42.5917-9.6064Q42.3736-10.1396 42.8593-10.6296L54.0313-22.7332Q54.3471-23.1155 54.4384-23.3024Q54.5298-23.4893 54.5298-23.9339L54.5298-36.5593Q54.5298-37.2222 54.0284-37.7944Q51.7303-40.3629 49.6071-42.69Q47.4838-45.0171 45.5766-47.2528Q45.2239-47.8051 45.3401-48.0954Q45.4562-48.3857 46-48.3857L66.1451-48.3857Q66.6266-48.3857 66.776-48.0954Q66.9254-47.8051 66.5728-47.2528Q64.6655-45.0171 62.5423-42.69Q60.4191-40.3629 58.121-37.7944Q57.6196-37.2222 57.6196-36.5593L57.6196-23.9339Q57.6196-23.4893 57.7109-23.3024Q57.8023-23.1155 58.118-22.7332L69.2235-10.6296Q69.7758-10.1396 69.5556-9.6064Q69.3354-9.07321 68.7462-9.07321Z"/>
  </g>
  <g id="Black-S" transform="matrix(1 0 0 1 2884.57 696)">
   <path d="M48.8281 6.78711Q57.5195 6.78711 65.1123 3.51562Q72.7051 0.244141 78.4912-5.54199Q84.2773-11.3281 87.5488-18.9209Q90.8203-26.5137 90.8203-35.2051Q90.8203-43.8965 87.5488-51.4893Q84.2773-59.082 78.4912-64.8682Q72.7051-70.6543 65.1123-73.9258Q57.5195-77.1973 48.8281-77.1973Q40.1367-77.1973 32.5439-73.9258Q24.9512-70.6543 19.165-64.8682Q13.3789-59.082 10.1074-51.4893Q6.83594-43.8965 6.83594-35.2051Q6.83594-26.5137 10.1074-18.9209Q13.3789-11.3281 19.165-5.54199Q24.9512 0.244141 32.5439 3.51562Q40.1367 6.78711 48.8281 6.78711ZM48.8281-7.37305Q43.0664-7.37305 38.0127-9.5459Q32.959-11.7188 29.1504-15.5273Q25.3418-19.3359 23.1689-24.3896Q20.9961-29.4434 20.9961-35.2051Q20.9961-40.9668 23.1689-46.0205Q25.3418-51.0742 29.1504-54.8828Q32.959-58.6914 38.0127-60.8643Q43.0664-63.0371 48.8281-63.0371Q54.5898-63.0371 59.6436-60.8643Q64.6973-58.6914 68.5059-54.8828Q72.3145-51.0742 74.4873-46.0205Q76.6602-40.9668 76.6602-35.2051Q76.6602-29.4434 74.4873-24.3896Q72.3145-19.3359 68.5059-15.5273Q64.6973-11.7188 59.6436-9.5459Q54.5898-7.37305 48.8281-7.37305ZM40.2832-15.0391L57.373-15.0391Q59.6191-15.0391 60.8887-16.3086Q62.1582-17.5781 62.1582-19.8242L62.1582-20.1172Q62.1582-22.9492 60.6689-25.5371Q59.1797-28.125 57.4219-30.1025Q55.6641-32.0801 54.7363-32.959Q53.7109-33.9844 53.7109-35.2783Q53.7109-36.5723 54.7363-37.5977Q55.6641-38.5254 57.4219-40.4785Q59.1797-42.4316 60.6689-45.0195Q62.1582-47.6074 62.1582-50.4395L62.1582-50.6836Q62.1582-52.9297 60.8887-54.1992Q59.6191-55.4688 57.373-55.4688L40.2832-55.4688Q38.0371-55.4688 36.7676-54.1992Q35.498-52.9297 35.498-50.6836L35.498-50.4395Q35.498-47.6074 36.9873-45.0195Q38.4766-42.4316 40.2588-40.4785Q42.041-38.5254 42.9199-37.5977Q43.9453-36.5723 43.9453-35.2783Q43.9453-33.9844 42.9199-32.959Q42.041-32.0801 40.2588-30.1025Q38.4766-28.125 36.9873-25.5371Q35.498-22.9492 35.498-20.1172L35.498-19.8242Q35.498-17.5781 36.7676-16.3086Q38.0371-15.0391 40.2832-15.0391ZM42.7246-20.2148Q41.8457-20.2148 41.5771-21.0205Q41.3086-21.8262 41.9434-22.4609L46.7285-27.4414Q47.2656-28.0273 47.4121-28.3447Q47.5586-28.6621 47.5586-29.5898L47.5586-36.377Q47.5586-38.2324 46.2402-39.5508Q45.5566-40.1855 44.5801-41.1621Q43.6035-42.1387 42.9199-42.9199Q42.334-43.6035 42.5537-44.3359Q42.7734-45.0684 43.75-45.0684L53.9062-45.0684Q54.8828-45.0684 55.1025-44.3359Q55.3223-43.6035 54.7363-42.9199Q54.0527-42.1387 53.0762-41.1621Q52.0996-40.1855 51.416-39.5508Q50.0977-38.2324 50.0977-36.377L50.0977-29.5898Q50.0977-28.6621 50.2686-28.3447Q50.4395-28.0273 50.9277-27.4414L55.7129-22.4609Q56.3965-21.8262 56.1035-21.0205Q55.8105-20.2148 54.9316-20.2148Z"/>
  </g>
  <g id="Heavy-S" transform="matrix(1 0 0 1 2588.47 696)">
   <path d="M48.2173 6.16479Q56.7704 6.16479 64.2537 2.9394Q71.737-0.285985 77.4425-5.99721Q83.1479-11.7084 86.3791-19.1917Q89.6102-26.675 89.6102-35.2166Q89.6102-43.7582 86.3791-51.2415Q83.1479-58.7248 77.4367-64.436Q71.7255-70.1472 64.2422-73.3726Q56.7589-76.598 48.2058-76.598Q39.6642-76.598 32.1809-73.3726Q24.6976-70.1472 18.9979-64.436Q13.2982-58.7248 10.0671-51.2415Q6.83594-43.7582 6.83594-35.2166Q6.83594-26.675 10.0671-19.1917Q13.2982-11.7084 19.0037-5.99721Q24.7092-0.285985 32.1924 2.9394Q39.6757 6.16479 48.2173 6.16479ZM48.2173-6.40499Q42.2482-6.40499 37.0216-8.64699Q31.795-10.889 27.8539-14.8359Q23.9128-18.7828 21.6708-24.0151Q19.4288-29.2474 19.4288-35.2166Q19.4288-41.1858 21.665-46.4181Q23.9012-51.6504 27.8424-55.5973Q31.7835-59.5442 37.0101-61.7862Q42.2366-64.0282 48.2058-64.0282Q54.1865-64.0282 59.4131-61.7862Q64.6396-59.5442 68.5865-55.5973Q72.5334-51.6504 74.7812-46.4181Q77.0289-41.1858 77.0289-35.2166Q77.0289-29.2474 74.7869-24.0151Q72.5449-18.7828 68.6038-14.8359Q64.6627-10.889 59.4304-8.64699Q54.198-6.40499 48.2173-6.40499ZM39.3151-14.5435L57.131-14.5435Q59.2965-14.5435 60.5257-15.7669Q61.7548-16.9904 61.7548-19.1788L61.7548-19.5064Q61.7548-22.373 60.2253-25.0243Q58.6957-27.6755 56.8341-29.7568Q54.9726-31.8381 53.895-32.8783Q52.789-33.9844 52.8005-35.2956Q52.812-36.6068 53.895-37.6783Q54.9726-38.7559 56.8341-40.8127Q58.6957-42.8696 60.2253-45.5266Q61.7548-48.1836 61.7548-51.0618L61.7548-51.329Q61.7548-53.5174 60.5257-54.7409Q59.2965-55.9643 57.131-55.9643L39.3151-55.9643Q37.1382-55.9643 35.909-54.7409Q34.6798-53.5174 34.6798-51.329L34.6798-51.0618Q34.6798-48.1836 36.2094-45.5266Q37.739-42.8696 39.6192-40.8127Q41.4994-38.7559 42.5396-37.6783Q43.6226-36.6068 43.6399-35.2956Q43.6572-33.9844 42.5396-32.8783Q41.4994-31.8381 39.6192-29.7568Q37.739-27.6755 36.2094-25.0243Q34.6798-22.373 34.6798-19.5064L34.6798-19.1788Q34.6798-16.9904 35.909-15.7669Q37.1382-14.5435 39.3151-14.5435ZM41.6413-19.339Q40.7739-19.339 40.5284-20.1331Q40.2829-20.9273 40.8946-21.5275L46.1984-26.9804Q46.6548-27.4742 46.7898-27.7512Q46.9247-28.0283 46.9247-28.7947L46.9247-36.5613Q46.9247-38.3477 45.6525-39.6084Q44.8652-40.3469 43.831-41.3695Q42.7968-42.3922 42.0325-43.2426Q41.4581-43.8916 41.6721-44.5664Q41.8861-45.2412 42.7819-45.2412L53.6642-45.2412Q54.5486-45.2412 54.7626-44.5664Q54.9765-43.8916 54.4021-43.2426Q53.6379-42.3922 52.6037-41.3695Q51.5695-40.3469 50.7822-39.6084Q49.5099-38.3477 49.5099-36.5613L49.5099-28.7947Q49.5099-28.0283 49.6635-27.7512Q49.8171-27.4742 50.2363-26.9804L55.54-21.5275Q56.189-20.9273 55.9306-20.1331Q55.6723-19.339 54.7933-19.339Z"/>
  </g>
  <g id="Bold-S" transform="matrix(1 0 0 1 2292.43 696)">
   <path d="M47.5342 5.46875Q55.9326 5.46875 63.2935 2.29492Q70.6543-0.878906 76.2695-6.50635Q81.8848-12.1338 85.0708-19.4946Q88.2568-26.8555 88.2568-35.2295Q88.2568-43.6035 85.0708-50.9644Q81.8848-58.3252 76.2573-63.9526Q70.6299-69.5801 63.269-72.7539Q55.9082-75.9277 47.5098-75.9277Q39.1357-75.9277 31.7749-72.7539Q24.4141-69.5801 18.811-63.9526Q13.208-58.3252 10.022-50.9644Q6.83594-43.6035 6.83594-35.2295Q6.83594-26.8555 10.022-19.4946Q13.208-12.1338 18.8232-6.50635Q24.4385-0.878906 31.7993 2.29492Q39.1602 5.46875 47.5342 5.46875ZM47.5342-5.32227Q41.333-5.32227 35.9131-7.6416Q30.4932-9.96094 26.4038-14.0625Q22.3145-18.1641 19.9951-23.5962Q17.6758-29.0283 17.6758-35.2295Q17.6758-41.4307 19.9829-46.8628Q22.29-52.2949 26.3794-56.3965Q30.4688-60.498 35.8887-62.8174Q41.3086-65.1367 47.5098-65.1367Q53.7354-65.1367 59.1553-62.8174Q64.5752-60.498 68.6768-56.3965Q72.7783-52.2949 75.1099-46.8628Q77.4414-41.4307 77.4414-35.2295Q77.4414-29.0283 75.1221-23.5962Q72.8027-18.1641 68.7134-14.0625Q64.624-9.96094 59.1919-7.6416Q53.7598-5.32227 47.5342-5.32227ZM38.2324-13.9893L56.8604-13.9893Q58.9355-13.9893 60.1196-15.1611Q61.3037-16.333 61.3037-18.457L61.3037-18.8232Q61.3037-21.7285 59.729-24.4507Q58.1543-27.1729 56.1768-29.3701Q54.1992-31.5674 52.9541-32.7881Q51.7578-33.9844 51.7822-35.3149Q51.8066-36.6455 52.9541-37.7686Q54.1992-39.0137 56.1768-41.1865Q58.1543-43.3594 59.729-46.0938Q61.3037-48.8281 61.3037-51.7578L61.3037-52.0508Q61.3037-54.1748 60.1196-55.3467Q58.9355-56.5186 56.8604-56.5186L38.2324-56.5186Q36.1328-56.5186 34.9487-55.3467Q33.7646-54.1748 33.7646-52.0508L33.7646-51.7578Q33.7646-48.8281 35.3394-46.0938Q36.9141-43.3594 38.9038-41.1865Q40.8936-39.0137 42.1143-37.7686Q43.2617-36.6455 43.2983-35.3149Q43.335-33.9844 42.1143-32.7881Q40.8936-31.5674 38.9038-29.3701Q36.9141-27.1729 35.3394-24.4507Q33.7646-21.7285 33.7646-18.8232L33.7646-18.457Q33.7646-16.333 34.9487-15.1611Q36.1328-13.9893 38.2324-13.9893ZM40.4297-18.3594Q39.5752-18.3594 39.3555-19.1406Q39.1357-19.9219 39.7217-20.4834L45.6055-26.4648Q45.9717-26.8555 46.0938-27.0874Q46.2158-27.3193 46.2158-27.9053L46.2158-36.7676Q46.2158-38.4766 44.9951-39.6729Q44.0918-40.5273 42.9932-41.6016Q41.8945-42.6758 41.04-43.6035Q40.4785-44.2139 40.686-44.8242Q40.8936-45.4346 41.6992-45.4346L53.3936-45.4346Q54.1748-45.4346 54.3823-44.8242Q54.5898-44.2139 54.0283-43.6035Q53.1738-42.6758 52.0752-41.6016Q50.9766-40.5273 50.0732-39.6729Q48.8525-38.4766 48.8525-36.7676L48.8525-27.9053Q48.8525-27.3193 48.9868-27.0874Q49.1211-26.8555 49.4629-26.4648L55.3467-20.4834Q55.957-19.9219 55.7373-19.1406Q55.5176-18.3594 54.6387-18.3594Z"/>
  </g>
  <g id="Semibold-S" transform="matrix(1 0 0 1 1996.19 696)">
   <path d="M47.0632 4.98887Q55.355 4.98887 62.6314 1.85059Q69.9078-1.2877 75.4608-6.85737Q81.0139-12.4271 84.1688-19.7035Q87.3237-26.9799 87.3237-35.2384Q87.3237-43.4969 84.1688-50.7733Q81.0139-58.0497 75.4442-63.6194Q69.8745-69.1891 62.5981-72.3273Q55.3217-75.4656 47.0299-75.4656Q38.7714-75.4656 31.495-72.3273Q24.2186-69.1891 18.6822-63.6194Q13.1458-58.0497 9.99087-50.7733Q6.83594-43.4969 6.83594-35.2384Q6.83594-26.9799 9.99087-19.7035Q13.1458-12.4271 18.6988-6.85737Q24.2519-1.2877 31.5283 1.85059Q38.8047 4.98887 47.0632 4.98887ZM47.0632-4.57578Q40.7021-4.57578 35.1488-6.94844Q29.5956-9.32109 25.4041-13.5293Q21.2125-17.7375 18.8398-23.3074Q16.4672-28.8772 16.4672-35.2384Q16.4672-41.5995 18.8232-47.1694Q21.1792-52.7393 25.3708-56.9475Q29.5623-61.1557 35.1155-63.5283Q40.6688-65.901 47.0299-65.901Q53.4243-65.901 58.9775-63.5283Q64.5308-61.1557 68.739-56.9475Q72.9472-52.7393 75.3365-47.1694Q77.7258-41.5995 77.7258-35.2384Q77.7258-28.8772 75.3531-23.3074Q72.9805-17.7375 68.7889-13.5293Q64.5974-9.32109 59.0275-6.94844Q53.4576-4.57578 47.0632-4.57578ZM37.4859-13.6071L56.6737-13.6071Q58.6867-13.6071 59.8397-14.7435Q60.9927-15.8798 60.9927-17.9594L60.9927-18.3522Q60.9927-21.2842 59.3869-24.0552Q57.7811-26.8263 55.7235-29.1035Q53.666-31.3808 52.3054-32.7259Q51.0469-33.9844 51.0802-35.3283Q51.1135-36.6722 52.3054-37.8308Q53.666-39.1914 55.7235-41.4442Q57.7811-43.6971 59.3869-46.4848Q60.9927-49.2725 60.9927-52.2377L60.9927-52.5484Q60.9927-54.628 59.8397-55.7644Q58.6867-56.9007 56.6737-56.9007L37.4859-56.9007Q35.4396-56.9007 34.2867-55.7644Q33.1337-54.628 33.1337-52.5484L33.1337-52.2377Q33.1337-49.2725 34.7395-46.4848Q36.3453-43.6971 38.4106-41.4442Q40.4759-39.1914 41.821-37.8308Q43.0129-36.6722 43.0628-35.3283Q43.1128-33.9844 41.821-32.7259Q40.4759-31.3808 38.4106-29.1035Q36.3453-26.8263 34.7395-24.0552Q33.1337-21.2842 33.1337-18.3522L33.1337-17.9594Q33.1337-15.8798 34.2867-14.7435Q35.4396-13.6071 37.4859-13.6071ZM39.5943-17.684Q38.7487-17.684 38.5468-18.4563Q38.3448-19.2287 38.913-19.7636L45.1967-26.1094Q45.5007-26.4289 45.6139-26.6297Q45.7271-26.8306 45.7271-27.2921L45.7271-36.9098Q45.7271-38.5654 44.5419-39.7173Q43.5586-40.6518 42.4155-41.7615Q41.2725-42.8713 40.3558-43.8523Q39.8031-44.436 40.0062-45.002Q40.2093-45.5679 40.9527-45.5679L53.2069-45.5679Q53.9171-45.5679 54.1202-45.002Q54.3232-44.436 53.7706-43.8523Q52.8539-42.8713 51.7108-41.7615Q50.5678-40.6518 49.5845-39.7173Q48.3993-38.5654 48.3993-36.9098L48.3993-27.2921Q48.3993-26.8306 48.5203-26.6297Q48.6412-26.4289 48.9297-26.1094L55.2134-19.7636Q55.7971-19.2287 55.604-18.4563Q55.4109-17.684 54.532-17.684Z"/>
  </g>
  <g id="Medium-S" transform="matrix(1 0 0 1 1699.83 696)">
   <path d="M46.7061 4.625Q54.917 4.625 62.1294 1.51367Q69.3418-1.59766 74.8477-7.12354Q80.3535-12.6494 83.4849-19.8618Q86.6162-27.0742 86.6162-35.2451Q86.6162-43.416 83.4849-50.6284Q80.3535-57.8408 74.8276-63.3667Q69.3018-68.8926 62.0894-72.0039Q54.877-75.1152 46.666-75.1152Q38.4951-75.1152 31.2827-72.0039Q24.0703-68.8926 18.5845-63.3667Q13.0986-57.8408 9.96729-50.6284Q6.83594-43.416 6.83594-35.2451Q6.83594-27.0742 9.96729-19.8618Q13.0986-12.6494 18.6045-7.12354Q24.1104-1.59766 31.3228 1.51367Q38.5352 4.625 46.7061 4.625ZM46.7061-4.00977Q40.2236-4.00977 34.5693-6.42285Q28.915-8.83594 24.646-13.125Q20.377-17.4141 17.9639-23.0884Q15.5508-28.7627 15.5508-35.2451Q15.5508-41.7275 17.9438-47.4019Q20.3369-53.0762 24.606-57.3652Q28.875-61.6543 34.5293-64.0674Q40.1836-66.4805 46.666-66.4805Q53.1885-66.4805 58.8428-64.0674Q64.4971-61.6543 68.7861-57.3652Q73.0752-53.0762 75.5083-47.4019Q77.9414-41.7275 77.9414-35.2451Q77.9414-28.7627 75.5283-23.0884Q73.1152-17.4141 68.8462-13.125Q64.5771-8.83594 58.9028-6.42285Q53.2285-4.00977 46.7061-4.00977ZM36.9199-13.3174L56.5322-13.3174Q58.498-13.3174 59.6274-14.4268Q60.7568-15.5361 60.7568-17.582L60.7568-17.9951Q60.7568-20.9473 59.1274-23.7554Q57.498-26.5635 55.3799-28.9014Q53.2617-31.2393 51.8135-32.6787Q50.5078-33.9844 50.5479-35.3384Q50.5879-36.6924 51.8135-37.8779Q53.2617-39.3262 55.3799-41.6396Q57.498-43.9531 59.1274-46.7812Q60.7568-49.6094 60.7568-52.6016L60.7568-52.9258Q60.7568-54.9717 59.6274-56.0811Q58.498-57.1904 56.5322-57.1904L36.9199-57.1904Q34.9141-57.1904 33.7847-56.0811Q32.6553-54.9717 32.6553-52.9258L32.6553-52.6016Q32.6553-49.6094 34.2847-46.7812Q35.9141-43.9531 38.0366-41.6396Q40.1592-39.3262 41.5986-37.8779Q42.8242-36.6924 42.8843-35.3384Q42.9443-33.9844 41.5986-32.6787Q40.1592-31.2393 38.0366-28.9014Q35.9141-26.5635 34.2847-23.7554Q32.6553-20.9473 32.6553-17.9951L32.6553-17.582Q32.6553-15.5361 33.7847-14.4268Q34.9141-13.3174 36.9199-13.3174ZM38.9609-17.1719Q38.1221-17.1719 37.9336-17.9375Q37.7451-18.7031 38.2998-19.2178L44.8867-25.8398Q45.1436-26.1055 45.25-26.2827Q45.3564-26.46 45.3564-26.8271L45.3564-37.0176Q45.3564-38.6328 44.1982-39.751Q43.1543-40.7461 41.9775-41.8828Q40.8008-43.0195 39.8369-44.041Q39.291-44.6045 39.4907-45.1367Q39.6904-45.6689 40.3867-45.6689L53.0654-45.6689Q53.7217-45.6689 53.9214-45.1367Q54.1211-44.6045 53.5752-44.041Q52.6113-43.0195 51.4346-41.8828Q50.2578-40.7461 49.2139-39.751Q48.0557-38.6328 48.0557-37.0176L48.0557-26.8271Q48.0557-26.46 48.1665-26.2827Q48.2773-26.1055 48.5254-25.8398L55.1123-19.2178Q55.6758-18.7031 55.5029-17.9375Q55.3301-17.1719 54.4512-17.1719Z"/>
  </g>
  <g id="Regular-S" transform="matrix(1 0 0 1 1403.58 696)">
   <path d="M46.2402 4.15039Q54.3457 4.15039 61.4746 1.07422Q68.6035-2.00195 74.0479-7.4707Q79.4922-12.9395 82.5928-20.0684Q85.6934-27.1973 85.6934-35.2539Q85.6934-43.3105 82.5928-50.4395Q79.4922-57.5684 74.0234-63.0371Q68.5547-68.5059 61.4258-71.582Q54.2969-74.6582 46.1914-74.6582Q38.1348-74.6582 31.0059-71.582Q23.877-68.5059 18.457-63.0371Q13.0371-57.5684 9.93652-50.4395Q6.83594-43.3105 6.83594-35.2539Q6.83594-27.1973 9.93652-20.0684Q13.0371-12.9395 18.4814-7.4707Q23.9258-2.00195 31.0547 1.07422Q38.1836 4.15039 46.2402 4.15039ZM46.2402-3.27148Q39.5996-3.27148 33.8135-5.7373Q28.0273-8.20312 23.6572-12.5977Q19.2871-16.9922 16.8213-22.8027Q14.3555-28.6133 14.3555-35.2539Q14.3555-41.8945 16.7969-47.7051Q19.2383-53.5156 23.6084-57.9102Q27.9785-62.3047 33.7646-64.7705Q39.5508-67.2363 46.1914-67.2363Q52.8809-67.2363 58.667-64.7705Q64.4531-62.3047 68.8477-57.9102Q73.2422-53.5156 75.7324-47.7051Q78.2227-41.8945 78.2227-35.2539Q78.2227-28.6133 75.7568-22.8027Q73.291-16.9922 68.9209-12.5977Q64.5508-8.20312 58.7402-5.7373Q52.9297-3.27148 46.2402-3.27148ZM36.1816-12.9395L56.3477-12.9395Q58.252-12.9395 59.3506-14.0137Q60.4492-15.0879 60.4492-17.0898L60.4492-17.5293Q60.4492-20.5078 58.7891-23.3643Q57.1289-26.2207 54.9316-28.6377Q52.7344-31.0547 51.1719-32.6172Q49.8047-33.9844 49.8535-35.3516Q49.9023-36.7188 51.1719-37.9395Q52.7344-39.502 54.9316-41.8945Q57.1289-44.2871 58.7891-47.168Q60.4492-50.0488 60.4492-53.0762L60.4492-53.418Q60.4492-55.4199 59.3506-56.4941Q58.252-57.5684 56.3477-57.5684L36.1816-57.5684Q34.2285-57.5684 33.1299-56.4941Q32.0312-55.4199 32.0312-53.418L32.0312-53.0762Q32.0312-50.0488 33.6914-47.168Q35.3516-44.2871 37.5488-41.8945Q39.7461-39.502 41.3086-37.9395Q42.5781-36.7188 42.6514-35.3516Q42.7246-33.9844 41.3086-32.6172Q39.7461-31.0547 37.5488-28.6377Q35.3516-26.2207 33.6914-23.3643Q32.0312-20.5078 32.0312-17.5293L32.0312-17.0898Q32.0312-15.0879 33.1299-14.0137Q34.2285-12.9395 36.1816-12.9395ZM38.1348-16.5039Q37.3047-16.5039 37.1338-17.2607Q36.9629-18.0176 37.5-18.5059L44.4824-25.4883Q44.6777-25.6836 44.7754-25.8301Q44.873-25.9766 44.873-26.2207L44.873-37.1582Q44.873-38.7207 43.75-39.7949Q42.627-40.8691 41.4062-42.041Q40.1855-43.2129 39.1602-44.2871Q38.623-44.8242 38.8184-45.3125Q39.0137-45.8008 39.6484-45.8008L52.8809-45.8008Q53.4668-45.8008 53.6621-45.3125Q53.8574-44.8242 53.3203-44.2871Q52.2949-43.2129 51.0742-42.041Q49.8535-40.8691 48.7305-39.7949Q47.6074-38.7207 47.6074-37.1582L47.6074-26.2207Q47.6074-25.9766 47.7051-25.8301Q47.8027-25.6836 47.998-25.4883L54.9805-18.5059Q55.5176-18.0176 55.3711-17.2607Q55.2246-16.5039 54.3457-16.5039Z"/>
  </g>
  <g id="Light-S" transform="matrix(1 0 0 1 1107.6 696)">
   <path d="M45.5078 3.41797Q53.4831 3.41797 60.4736 0.406901Q67.4642-2.60417 72.8109-7.96712Q78.1576-13.3301 81.193-20.3206Q84.2285-27.3112 84.2285-35.2539Q84.2285-43.1966 81.193-50.1872Q78.1576-57.1777 72.7946-62.5407Q67.4316-67.9036 60.4411-70.9147Q53.4505-73.9258 45.4753-73.9258Q37.5488-73.9258 30.5501-70.9147Q23.5514-67.9036 18.2292-62.5407Q12.9069-57.1777 9.87142-50.1872Q6.83594-43.1966 6.83594-35.2539Q6.83594-27.3112 9.87142-20.3206Q12.9069-13.3301 18.2454-7.96712Q23.584-2.60417 30.5827 0.406901Q37.5814 3.41797 45.5078 3.41797ZM45.5078-2.27865Q38.6719-2.27865 32.6986-4.82585Q26.7253-7.37305 22.2087-11.9059Q17.6921-16.4388 15.1367-22.4284Q12.5814-28.418 12.5814-35.2539Q12.5814-42.0898 15.1204-48.0794Q17.6595-54.069 22.1761-58.6019Q26.6927-63.1348 32.666-65.682Q38.6393-68.2292 45.4753-68.2292Q52.3438-68.2292 58.3252-65.682Q64.3066-63.1348 68.8314-58.6019Q73.3561-54.069 75.9277-48.0794Q78.4993-42.0898 78.4993-35.2539Q78.4993-28.418 75.9521-22.4284Q73.4049-16.4388 68.8883-11.9059Q64.3717-7.37305 58.3822-4.82585Q52.3926-2.27865 45.5078-2.27865ZM35.0586-12.8743L56.0221-12.8743Q57.7474-12.8743 58.7646-13.8753Q59.7819-14.8763 59.7819-16.6667L59.7819-17.2852Q59.7819-20.1823 58.0648-23.1283Q56.3477-26.0742 54.0202-28.6784Q51.6927-31.2826 49.8698-33.1055Q48.763-34.2122 48.7956-35.3271Q48.8281-36.4421 49.8698-37.4512Q51.6927-39.2741 54.0202-41.862Q56.3477-44.4499 58.0648-47.4121Q59.7819-50.3743 59.7819-53.304L59.7819-53.8411Q59.7819-55.6315 58.7646-56.6325Q57.7474-57.6335 56.0221-57.6335L35.0586-57.6335Q33.3008-57.6335 32.2835-56.6325Q31.2663-55.6315 31.2663-53.8411L31.2663-53.304Q31.2663-50.3743 32.9834-47.4121Q34.7005-44.4499 37.028-41.862Q39.3555-39.2741 41.1621-37.4512Q42.2201-36.4421 42.2689-35.3271Q42.3177-34.2122 41.1621-33.1055Q39.3555-31.2826 37.028-28.6784Q34.7005-26.0742 32.9834-23.1283Q31.2663-20.1823 31.2663-17.2852L31.2663-16.6667Q31.2663-14.8763 32.2835-13.8753Q33.3008-12.8743 35.0586-12.8743ZM36.8327-15.9505Q36.1328-15.9505 35.9619-16.6016Q35.791-17.2526 36.2793-17.7083L43.8151-25.472Q44.0267-25.6999 44.1162-25.8464Q44.2057-25.9928 44.2057-26.2695L44.2057-36.8815Q44.2057-38.1185 43.3105-38.9974Q41.9759-40.3646 40.6169-41.7399Q39.2578-43.1152 38.0859-44.401Q37.6302-44.9056 37.793-45.3125Q37.9557-45.7194 38.5254-45.7194L52.5553-45.7194Q53.0762-45.7194 53.2471-45.3125Q53.418-44.9056 52.9622-44.401Q51.7904-43.1152 50.4313-41.7399Q49.0723-40.3646 47.7376-38.9974Q46.8424-38.1185 46.8424-36.8815L46.8424-26.2695Q46.8424-25.9928 46.932-25.8464Q47.0215-25.6999 47.2331-25.472L54.7526-17.7083Q55.2572-17.2526 55.1025-16.6016Q54.9479-15.9505 54.1992-15.9505Z"/>
  </g>
  <g id="Thin-S" transform="matrix(1 0 0 1 811.863 696)">
   <path d="M44.5391 2.44928Q52.3422 2.44928 59.1498-0.47568Q65.9573-3.40064 71.1749-8.62368Q76.3924-13.8467 79.3418-20.6543Q82.2911-27.4619 82.2911-35.2539Q82.2911-43.0459 79.3418-49.8535Q76.3924-56.6611 71.1694-61.8841Q65.9463-67.1072 59.1387-70.0321Q52.3311-72.9571 44.5281-72.9571Q36.7739-72.9571 29.9474-70.0321Q23.1209-67.1072 17.9278-61.8841Q12.7347-56.6611 9.78531-49.8535Q6.83594-43.0459 6.83594-35.2539Q6.83594-27.4619 9.78531-20.6543Q12.7347-13.8467 17.9333-8.62368Q23.1319-3.40064 29.9584-0.47568Q36.7849 2.44928 44.5391 2.44928ZM44.5391-0.965537Q37.4449-0.965537 31.224-3.62037Q25.0032-6.2752 20.2928-10.9911Q15.5825-15.7069 12.9087-21.9333Q10.235-28.1597 10.235-35.2539Q10.235-42.3482 12.9032-48.5745Q15.5714-54.8009 20.2818-59.5168Q24.9921-64.2326 31.213-66.8874Q37.4338-69.5423 44.5281-69.5423Q51.6334-69.5423 57.8731-66.8874Q64.1129-64.2326 68.8099-59.5168Q73.5068-54.8009 76.1861-48.5745Q78.8653-42.3482 78.8653-35.2539Q78.8653-28.1597 76.2105-21.9333Q73.5556-15.7069 68.8453-10.9911Q64.135-6.2752 57.9086-3.62037Q51.6822-0.965537 44.5391-0.965537ZM33.5733-12.7882L55.5916-12.7882Q57.0801-12.7882 57.9897-13.6924Q58.8993-14.5965 58.8993-16.107L58.8993-16.9623Q58.8993-19.7518 57.1069-22.8161Q55.3144-25.8805 52.8147-28.7322Q50.315-31.5839 48.1477-33.7513Q47.3853-34.5136 47.3964-35.2949Q47.4074-36.0761 48.1477-36.8054Q50.315-38.9727 52.8147-41.8189Q55.3144-44.6651 57.1069-47.735Q58.8993-50.8049 58.8993-53.6054L58.8993-54.4008Q58.8993-55.9114 57.9897-56.8155Q57.0801-57.7196 55.5916-57.7196L33.5733-57.7196Q32.0738-57.7196 31.1642-56.8155Q30.2545-55.9114 30.2545-54.4008L30.2545-53.6054Q30.2545-50.8049 32.047-47.735Q33.8395-44.6651 36.3392-41.8189Q38.8388-38.9727 40.9684-36.8054Q41.7465-36.0761 41.763-35.2949Q41.7795-34.5136 40.9684-33.7513Q38.8388-31.5839 36.3392-28.7322Q33.8395-25.8805 32.047-22.8161Q30.2545-19.7518 30.2545-16.9623L30.2545-16.107Q30.2545-14.5965 31.1642-13.6924Q32.0738-12.7882 33.5733-12.7882ZM35.1106-15.2186Q34.5829-15.2186 34.412-15.7297Q34.2411-16.2409 34.6648-16.6535L42.9325-25.4505Q43.1656-25.7214 43.2444-25.8679Q43.3231-26.0144 43.3231-26.3341L43.3231-36.5156Q43.3231-37.322 42.7293-37.9426Q41.1149-39.6973 39.5728-41.3417Q38.0308-42.9861 36.6652-44.5517Q36.3171-45.0132 36.4368-45.3125Q36.5565-45.6118 37.0401-45.6118L52.1248-45.6118Q52.5595-45.6118 52.6981-45.3125Q52.8368-45.0132 52.4887-44.5517Q51.123-42.9861 49.581-41.3417Q48.039-39.6973 46.4245-37.9426Q45.8307-37.322 45.8307-36.5156L45.8307-26.3341Q45.8307-26.0144 45.9095-25.8679Q45.9882-25.7214 46.2213-25.4505L54.4512-16.6535Q54.9127-16.2409 54.7474-15.7297Q54.582-15.2186 54.0055-15.2186Z"/>
  </g>
  <g id="Ultralight-S" transform="matrix(1 0 0 1 515.649 696)">
   <path d="M44.043 1.95312Q51.7578 1.95312 58.4717-0.927734Q65.1855-3.80859 70.3369-8.95996Q75.4883-14.1113 78.3936-20.8252Q81.2988-27.5391 81.2988-35.2539Q81.2988-42.9688 78.3936-49.6826Q75.4883-56.3965 70.3369-61.5479Q65.1855-66.6992 58.4717-69.5801Q51.7578-72.4609 44.043-72.4609Q36.377-72.4609 29.6387-69.5801Q22.9004-66.6992 17.7734-61.5479Q12.6465-56.3965 9.74121-49.6826Q6.83594-42.9688 6.83594-35.2539Q6.83594-27.5391 9.74121-20.8252Q12.6465-14.1113 17.7734-8.95996Q22.9004-3.80859 29.6387-0.927734Q36.377 1.95312 44.043 1.95312ZM44.043-0.292969Q36.8164-0.292969 30.4688-3.00293Q24.1211-5.71289 19.3115-10.5225Q14.502-15.332 11.7676-21.6797Q9.0332-28.0273 9.0332-35.2539Q9.0332-42.4805 11.7676-48.8281Q14.502-55.1758 19.3115-59.9854Q24.1211-64.7949 30.4688-67.5049Q36.8164-70.2148 44.043-70.2148Q51.2695-70.2148 57.6416-67.5049Q64.0137-64.7949 68.7988-59.9854Q73.584-55.1758 76.3184-48.8281Q79.0527-42.4805 79.0527-35.2539Q79.0527-28.0273 76.3428-21.6797Q73.6328-15.332 68.8232-10.5225Q64.0137-5.71289 57.666-3.00293Q51.3184-0.292969 44.043-0.292969ZM32.8125-12.7441L55.3711-12.7441Q56.7383-12.7441 57.5928-13.5986Q58.4473-14.4531 58.4473-15.8203L58.4473-16.7969Q58.4473-19.5312 56.6162-22.6562Q54.7852-25.7812 52.1973-28.7598Q49.6094-31.7383 47.2656-34.082Q46.6797-34.668 46.6797-35.2783Q46.6797-35.8887 47.2656-36.4746Q49.6094-38.8184 52.1973-41.7969Q54.7852-44.7754 56.6162-47.9004Q58.4473-51.0254 58.4473-53.7598L58.4473-54.6875Q58.4473-56.0547 57.5928-56.9092Q56.7383-57.7637 55.3711-57.7637L32.8125-57.7637Q31.4453-57.7637 30.5908-56.9092Q29.7363-56.0547 29.7363-54.6875L29.7363-53.7598Q29.7363-51.0254 31.5674-47.9004Q33.3984-44.7754 35.9863-41.7969Q38.5742-38.8184 40.8691-36.4746Q41.5039-35.8887 41.5039-35.2783Q41.5039-34.668 40.8691-34.082Q38.5742-31.7383 35.9863-28.7598Q33.3984-25.7812 31.5674-22.6562Q29.7363-19.5312 29.7363-16.7969L29.7363-15.8203Q29.7363-14.4531 30.5908-13.5986Q31.4453-12.7441 32.8125-12.7441ZM34.2285-14.8438Q33.7891-14.8438 33.6182-15.2832Q33.4473-15.7227 33.8379-16.1133L42.4805-25.4395Q42.7246-25.7324 42.7979-25.8789Q42.8711-26.0254 42.8711-26.3672L42.8711-36.3281Q42.8711-36.9141 42.4316-37.4023Q40.6738-39.3555 39.0381-41.1377Q37.4023-42.9199 35.9375-44.6289Q35.6445-45.0684 35.7422-45.3125Q35.8398-45.5566 36.2793-45.5566L51.9043-45.5566Q52.2949-45.5566 52.417-45.3125Q52.5391-45.0684 52.2461-44.6289Q50.7812-42.9199 49.1455-41.1377Q47.5098-39.3555 45.752-37.4023Q45.3125-36.9141 45.3125-36.3281L45.3125-26.3672Q45.3125-26.0254 45.3857-25.8789Q45.459-25.7324 45.7031-25.4395L54.2969-16.1133Q54.7363-15.7227 54.5654-15.2832Q54.3945-14.8438 53.9062-14.8438Z"/>
  </g>
 </g>
</svg>
