<?xml version="1.0" encoding="utf-8"?>
<!-- Generator: Adobe Illustrator 26.3.1, SVG Export Plug-In . SVG Version: 6.00 Build 0)  -->
<svg version="1.1" id="图层_1" xmlns="http://www.w3.org/2000/svg" xmlns:xlink="http://www.w3.org/1999/xlink" x="0px" y="0px"
	 viewBox="0 0 3300 2200" style="enable-background:new 0 0 3300 2200;" xml:space="preserve">
<style type="text/css">
	.st0{fill:#FFFFFF;}
	.st1{fill:none;stroke:#000000;stroke-width:0.5;}
	.st2{font-family:'Helvetica-Bold';}
	.st3{font-size:13px;}
	.st4{font-family:'Helvetica';}
	.st5{fill:none;stroke:#00AEEF;stroke-width:0.5;}
	.st6{fill:#27AAE1;}
	.st7{fill:none;stroke:#27AAE1;stroke-width:0.5;}
</style>
<g id="Notes">
	<rect id="artboard" x="-0.5" y="-63.1" class="st0" width="3300" height="2200"/>
	<line class="st1" x1="262.5" y1="228.9" x2="3035.5" y2="228.9"/>
	<text transform="matrix(1 0 0 1 262.5 258.9335)" class="st2 st3">Weight/Scale Variations</text>
	<text transform="matrix(1 0 0 1 533.5633 258.9335)" class="st4 st3">Ultralight</text>
	<text transform="matrix(1 0 0 1 843.2775 258.9335)" class="st4 st3">Thin</text>
	<text transform="matrix(1 0 0 1 1138.535 258.9335)" class="st4 st3">Light</text>
	<text transform="matrix(1 0 0 1 1426.5773 258.9335)" class="st4 st3">Regular</text>
	<text transform="matrix(1 0 0 1 1722.9419 258.9335)" class="st4 st3">Medium</text>
	<text transform="matrix(1 0 0 1 2015.6719 258.9335)" class="st4 st3">Semibold</text>
	<text transform="matrix(1 0 0 1 2326.4705 258.9335)" class="st4 st3">Bold</text>
	<text transform="matrix(1 0 0 1 2617.7659 258.9335)" class="st4 st3">Heavy</text>
	<text transform="matrix(1 0 0 1 2917.0054 258.9335)" class="st4 st3">Black</text>
	<line class="st1" x1="262.5" y1="1839.9" x2="3035.5" y2="1839.9"/>
	<g transform="matrix(1 0 0 1 263 1933)">
		<path d="M8.7-62.3c1.1,0,2.1-0.2,3-0.6c1-0.4,1.8-1,2.5-1.7c0.7-0.7,1.3-1.6,1.7-2.5c0.4-1,0.6-2,0.6-3s-0.2-2.1-0.6-3
			c-0.4-1-1-1.8-1.7-2.5c-0.7-0.7-1.6-1.3-2.5-1.7c-1-0.4-2-0.6-3-0.6c-1.1,0-2.1,0.2-3,0.6s-1.8,1-2.5,1.7
			c-0.7,0.6-1.3,1.5-1.7,2.4c-0.4,1-0.6,2-0.6,3s0.2,2.1,0.6,3.1s1,1.8,1.7,2.5c0.7,0.7,1.6,1.3,2.5,1.7C6.7-62.5,7.7-62.3,8.7-62.3
			z M8.7-63.8c-0.9,0-1.7-0.2-2.5-0.5c-0.7-0.3-1.4-0.7-2-1.3s-1-1.3-1.4-2c-0.3-0.8-0.4-1.7-0.4-2.6s0.2-1.7,0.5-2.5s0.8-1.5,1.4-2
			c0.6-0.6,1.3-1,2-1.4c0.8-0.3,1.6-0.5,2.5-0.5s1.7,0.2,2.5,0.5c0.8,0.3,1.5,0.8,2,1.4c0.6,0.6,1,1.3,1.4,2
			c0.3,0.8,0.5,1.6,0.5,2.5s-0.2,1.7-0.5,2.5s-0.8,1.5-1.4,2c-0.6,0.6-1.3,1-2,1.4C10.5-63.9,9.6-63.8,8.7-63.8z M5.2-70.2
			c0,0.2,0.1,0.4,0.2,0.5c0.1,0.2,0.3,0.3,0.5,0.3H8v2.1c0,0.2,0.1,0.4,0.2,0.5c0.1,0.2,0.3,0.2,0.5,0.2s0.4-0.1,0.5-0.2
			c0.2-0.1,0.3-0.3,0.3-0.5v-2.1h2.1c0.2,0,0.4-0.1,0.5-0.2c0.1-0.1,0.2-0.3,0.2-0.5c0-0.2-0.1-0.4-0.2-0.5
			c-0.1-0.1-0.3-0.2-0.5-0.2H9.5v-2.1c0-0.2-0.1-0.4-0.2-0.5c-0.1-0.1-0.3-0.2-0.5-0.2s-0.4,0.1-0.5,0.2s-0.2,0.3-0.2,0.5v2.1H5.9
			c-0.2-0.1-0.4,0-0.5,0.1C5.2-70.6,5.2-70.4,5.2-70.2z"/>
	</g>
	<g transform="matrix(1 0 0 1 281.867 1933)">
		<path d="M11.2-60.2c1.4,0,2.6-0.3,3.8-0.8s2.3-1.2,3.2-2.2c0.9-0.9,1.6-2,2.2-3.2c0.5-1.2,0.8-2.5,0.8-3.8c0-1.4-0.3-2.6-0.8-3.8
			c-0.5-1.2-1.2-2.3-2.2-3.2c-0.9-0.9-2-1.6-3.2-2.2c-1.2-0.5-2.5-0.8-3.8-0.8s-2.6,0.3-3.8,0.8s-2.3,1.2-3.2,2.2
			c-0.9,0.9-1.6,2-2.2,3.2c-0.5,1.2-0.8,2.5-0.8,3.8c0,1.4,0.3,2.6,0.8,3.8c0.5,1.2,1.3,2.4,2.2,3.3c0.9,0.9,2,1.6,3.2,2.2
			C8.6-60.3,9.8-60.2,11.2-60.2z M11.2-61.9C10-61.9,9-62.1,8-62.5s-1.9-1-2.6-1.8C4.6-65,4-65.9,3.6-66.9S2.9-69,2.9-70.2
			s0.2-2.2,0.6-3.2s1-1.9,1.8-2.6c0.8-0.8,1.6-1.4,2.6-1.8s2.1-0.6,3.2-0.6s2.2,0.2,3.2,0.6s1.9,1,2.6,1.8c0.8,0.8,1.4,1.6,1.8,2.6
			s0.6,2.1,0.6,3.2c0,1.2-0.2,2.2-0.6,3.2s-1,1.9-1.8,2.6c-0.8,0.8-1.6,1.4-2.6,1.8C13.3-62.2,12.4-61.9,11.2-61.9z M6.7-70.2
			c0,0.2,0.1,0.4,0.2,0.6c0.2,0.2,0.4,0.3,0.6,0.3h2.9v2.9c0,0.2,0.1,0.4,0.2,0.6c0.1,0.2,0.3,0.2,0.6,0.2c0.2,0,0.4-0.1,0.6-0.2
			C12-66,12-66.2,12-66.4v-2.9h2.9c0.2,0,0.4-0.1,0.6-0.2c0.2-0.1,0.2-0.3,0.2-0.6c0-0.2-0.1-0.4-0.2-0.6c-0.2-0.2-0.4-0.2-0.6-0.2
			H12v-2.9c0-0.3-0.1-0.5-0.2-0.6s-0.4-0.2-0.6-0.2c-0.2,0-0.4,0.1-0.6,0.2c-0.1,0.2-0.2,0.4-0.2,0.6v2.9H7.5
			c-0.3,0-0.5,0.1-0.6,0.2S6.7-70.4,6.7-70.2z"/>
	</g>
	<g transform="matrix(1 0 0 1 305.646 1933)">
		<path d="M14.5-57.4c1.4,0,2.7-0.2,4-0.6s2.4-1,3.5-1.8s2-1.7,2.8-2.8c0.7-1.1,1.3-2.3,1.7-3.6c0.4-1.3,0.6-2.6,0.6-4
			s-0.2-2.7-0.6-4s-1-2.4-1.8-3.5s-1.7-2-2.8-2.8c-1.1-0.8-2.2-1.4-3.5-1.8s-2.6-0.6-4-0.6s-2.7,0.2-4,0.6s-2.4,1-3.5,1.8
			c-1.1,0.8-2,1.7-2.8,2.8s-1.4,2.2-1.8,3.5c-0.4,1.3-0.6,2.6-0.6,4s0.2,2.7,0.6,4c0.4,1.3,1,2.4,1.8,3.5c0.8,1.1,1.7,2,2.8,2.8
			c1.2,0.8,2.3,1.4,3.6,1.8C11.7-57.7,13.1-57.4,14.5-57.4z M14.5-59.3c-1.2,0-2.4-0.2-3.4-0.6c-1.1-0.4-2.1-0.9-3-1.5
			c-1-0.6-1.8-1.4-2.4-2.3c-0.7-0.9-1.2-1.9-1.6-3c-0.3-1.1-0.5-2.2-0.5-3.5c0-1.2,0.2-2.4,0.5-3.5c0.4-1.1,0.9-2.1,1.5-3
			C6.3-77.6,7-78.4,8-79.1c0.9-0.7,1.9-1.2,3-1.5c1.1-0.4,2.2-0.5,3.4-0.5s2.4,0.2,3.5,0.5c1.1,0.4,2.1,0.9,3,1.5
			c0.9,0.7,1.7,1.5,2.4,2.4c0.7,0.9,1.2,1.9,1.5,3c0.4,1.1,0.6,2.2,0.6,3.5c0,1.2-0.2,2.4-0.5,3.4c-0.4,1.1-0.9,2.1-1.5,3
			c-0.7,0.9-1.5,1.7-2.4,2.4c-0.9,0.7-1.9,1.2-3,1.5C16.8-59.4,15.7-59.3,14.5-59.3z M8.7-70.2c0,0.3,0.1,0.5,0.3,0.6
			c0.2,0.2,0.4,0.2,0.7,0.2h3.9v4c0,0.3,0.1,0.5,0.2,0.7c0.2,0.2,0.4,0.3,0.6,0.3c0.3,0,0.5-0.1,0.7-0.3s0.3-0.4,0.3-0.7v-4h4
			c0.3,0,0.5-0.1,0.7-0.2c0.2-0.2,0.3-0.4,0.3-0.6c0-0.3-0.1-0.5-0.3-0.7c-0.3-0.1-0.5-0.2-0.8-0.2h-4V-75c0-0.3-0.1-0.5-0.3-0.7
			c-0.2-0.2-0.4-0.3-0.7-0.3s-0.5,0.1-0.6,0.3c-0.2,0.2-0.2,0.4-0.2,0.7v3.9H9.6c-0.3,0-0.5,0.1-0.6,0.3C8.8-70.6,8.7-70.4,8.7-70.2
			z"/>
	</g>
	<text transform="matrix(1 0 0 1 262.5 1889.9336)" class="st2 st3">Design Variations</text>
	<text transform="matrix(1 0 0 1 262.5 1907.9336)" class="st4 st3">Symbols are supported in up to nine weights and three scales.</text>
	<text transform="matrix(1 0 0 1 262.5 1925.9336)" class="st4 st3">For optimal layout with text and other symbols, vertically align</text>
	<text transform="matrix(1 0 0 1 262.5 1943.9336)" class="st4 st3">symbols with the adjacent text.</text>
	<line class="st5" x1="775.5" y1="1855.9" x2="775.5" y2="1869.9"/>
	<g transform="matrix(1 0 0 1 776 1933)">
		<path d="M2.8-62.9c0.3,0,0.5-0.1,0.6-0.2c0.1-0.1,0.3-0.3,0.4-0.6L5-67.1h5.8l1.3,3.4c0.1,0.3,0.2,0.5,0.4,0.6
			c0.1,0.1,0.3,0.2,0.6,0.2s0.5-0.1,0.6-0.2c0.2-0.1,0.2-0.3,0.2-0.6c0-0.1,0-0.3-0.1-0.5L9.2-76.5c-0.1-0.3-0.3-0.5-0.5-0.7
			c-0.2-0.1-0.5-0.2-0.8-0.2c-0.6,0-1,0.3-1.2,0.9L2.1-64.3C2-64.1,2-63.9,2-63.7s0.1,0.4,0.2,0.6C2.3-62.9,2.6-62.9,2.8-62.9z
			 M5.5-68.6l2.4-6.6l0,0l2.4,6.6C10.3-68.6,5.5-68.6,5.5-68.6z"/>
	</g>
	<line class="st5" x1="792.7" y1="1855.9" x2="792.7" y2="1869.9"/>
	<text transform="matrix(1 0 0 1 775.5 1889.9336)" class="st2 st3">Margins</text>
	<text transform="matrix(1 0 0 1 775.5 1907.9336)" class="st4 st3">Leading and trailing margins on the left and right side of each symbol</text>
	<text transform="matrix(1 0 0 1 775.5 1925.9336)" class="st4 st3">can be adjusted by modifying the x-location of the margin guidelines.</text>
	<text transform="matrix(1 0 0 1 775.5 1943.9336)" class="st4 st3">Modifications are automatically applied proportionally to all</text>
	<text transform="matrix(1 0 0 1 775.5 1961.9336)" class="st4 st3">scales and weights.</text>
	<g transform="matrix(1 0 0 1 1289 1933)">
		<path d="M2.3-61.2L4-59.5c0.5,0.4,0.9,0.6,1.4,0.6s0.9-0.3,1.4-0.8l10.7-11.8l-1-1L5.9-60.8c-0.2,0.2-0.3,0.3-0.5,0.3
			S5-60.6,4.8-60.8L3.6-62c-0.2-0.2-0.3-0.4-0.3-0.6c0-0.2,0.1-0.4,0.3-0.5l11.5-10.8l-1-1L2.5-64c-0.4,0.5-0.7,0.9-0.7,1.4
			C1.7-62.1,1.9-61.7,2.3-61.2z M8.8-79.4c-0.2,0.2-0.3,0.4-0.4,0.7c0,0.3,0,0.5,0.1,0.7c0.1,0.2,0.3,0.3,0.5,0.4
			c0.2,0.1,0.5,0.1,0.8,0c0.7-0.2,1.5-0.2,2.2-0.2s1.5,0.3,2.2,0.7l-0.6,1.5c-0.2,0.4-0.2,0.8-0.1,1.1c0.1,0.3,0.2,0.6,0.5,0.9
			l2.3,2.3c0.2,0.2,0.5,0.4,0.7,0.4s0.5,0,0.8,0l1.1-0.2l0.7,0.7v0.6c0,0.2,0,0.5,0.1,0.7c0.1,0.2,0.2,0.4,0.5,0.7l0.8,0.7
			c0.2,0.2,0.5,0.4,0.8,0.4s0.5-0.1,0.8-0.3l2.9-2.9c0.2-0.2,0.3-0.5,0.3-0.8c0-0.3-0.1-0.5-0.4-0.8L24.5-73
			c-0.2-0.2-0.5-0.4-0.7-0.5c-0.2-0.1-0.4-0.1-0.7-0.1h-0.6l-0.6-0.6l0.2-1.1c0.1-0.3,0.1-0.5,0-0.8c-0.1-0.3-0.3-0.5-0.6-0.8
			l-2.1-2.2c-0.8-0.8-1.7-1.4-2.7-1.9c-0.9-0.4-1.9-0.6-2.8-0.6c-1,0-1.9,0.2-2.8,0.5C10.3-80.7,9.5-80.2,8.8-79.4z M10.3-79.1
			c0.6-0.4,1.3-0.8,1.9-0.9c0.7-0.2,1.4-0.2,2.1-0.2c0.7,0.1,1.4,0.3,2.1,0.6c0.7,0.3,1.3,0.7,1.8,1.3l2.4,2.4
			c0.1,0.1,0.2,0.2,0.2,0.3c0,0.1,0,0.3,0,0.4l-0.3,1.6l1.5,1.5l1-0.1c0.1,0,0.2,0,0.3,0c0.1,0,0.1,0.1,0.2,0.2l0.6,0.6L21.7-69
			l-0.6-0.6c-0.1-0.1-0.2-0.2-0.2-0.2c0-0.1,0-0.2,0-0.3l0.1-1l-1.5-1.5L18-72.3c-0.2,0-0.3,0-0.4,0s-0.2-0.1-0.3-0.2l-2-2
			c-0.1-0.1-0.2-0.2-0.2-0.3s0-0.3,0.1-0.4l0.9-2.1c-0.8-0.7-1.7-1.2-2.6-1.5c-1-0.3-2-0.3-3,0c-0.1,0-0.1,0-0.2,0
			C10.2-79,10.2-79,10.3-79.1z"/>
	</g>
	<text transform="matrix(1 0 0 1 1288.5 1889.9336)" class="st2 st3">Exporting</text>
	<text transform="matrix(1 0 0 1 1288.5 1907.9336)" class="st4 st3">Symbols should be outlined when exporting to ensure the</text>
	<text transform="matrix(1 0 0 1 1288.5 1925.9336)" class="st4 st3">design is preserved when submitting to Xcode.</text>
	<text id="template-version" transform="matrix(1 0 0 1 2951.9141 1869.9336)" class="st4 st3">Template v.3.0</text>
	<text transform="matrix(1 0 0 1 2864.9575 1887.9336)" class="st4 st3">Requires Xcode 13 or greater</text>
	<text id="descriptive-name" transform="matrix(1 0 0 1 2850.5293 1905.9336)" class="st4 st3">Generated from hourglass.circle</text>
	<text transform="matrix(1 0 0 1 2911.9111 1923.9336)" class="st4 st3">Typeset at 100 points</text>
	<text transform="matrix(1 0 0 1 262.5 662.9335)" class="st4 st3">Small</text>
	<text transform="matrix(1 0 0 1 262.5 1092.9336)" class="st4 st3">Medium</text>
	<text transform="matrix(1 0 0 1 262.5 1522.9336)" class="st4 st3">Large</text>
</g>
<g id="Guides">
	<g id="H-reference" transform="matrix(1 0 0 1 339 696)">
		<path class="st6" d="M1,0h2.6l25.7-67.1H30v-3.3h-1.9L1,0z M11.7-24.5H47l-0.8-2.2H12.4L11.7-24.5z M55.1,0h2.6L30.6-70.5h-1.2
			v3.3L55.1,0z"/>
	</g>
	<line id="Baseline-S" class="st7" x1="263" y1="696" x2="3036" y2="696"/>
	<line id="Capline-S" class="st7" x1="263" y1="625.5" x2="3036" y2="625.5"/>
	<g id="H-reference_00000174582976744177833630000007730325773184391314_" transform="matrix(1 0 0 1 339 1126)">
		<path class="st6" d="M1,0h2.6l25.7-67.1H30v-3.3h-1.9L1,0z M11.7-24.5H47l-0.8-2.2H12.4L11.7-24.5z M55.1,0h2.6L30.6-70.5h-1.2
			v3.3L55.1,0z"/>
	</g>
	<line id="Baseline-M" class="st7" x1="263" y1="1126" x2="3036" y2="1126"/>
	<line id="Capline-M" class="st7" x1="263" y1="1055.5" x2="3036" y2="1055.5"/>
	<g id="H-reference_00000113329496982249443560000009416180920334905247_" transform="matrix(1 0 0 1 339 1556)">
		<path class="st6" d="M1,0h2.6l25.7-67.1H30v-3.3h-1.9L1,0z M11.7-24.5H47l-0.8-2.2H12.4L11.7-24.5z M55.1,0h2.6L30.6-70.5h-1.2
			v3.3L55.1,0z"/>
	</g>
	<line id="Baseline-L" class="st7" x1="263" y1="1556" x2="3036" y2="1556"/>
	<line id="Capline-L" class="st7" x1="263" y1="1485.5" x2="3036" y2="1485.5"/>
	<line id="left-margin-Regular-M" class="st5" x1="1391.3" y1="1030.8" x2="1391.3" y2="1150.1"/>
	<line id="right-margin-Regular-M" class="st5" x1="1508.4" y1="1030.8" x2="1508.4" y2="1150.1"/>
</g>
<g id="Symbols">
	<g id="Regular-M" transform="matrix(1 0 0 1 1391.32 1126)">
		<g>
			<path d="M34.3-24.6c0.9,0.5,1.9,0.8,2.6,1.4c1.9,1.7,3.7,3.6,5.6,5.3c4.5,4,10,6,15.8,7.2c1.4,0.3,2.1,0.8,2.4,2.2
				c0.4,1.8,0.9,2,2.7,1.9c1-0.1,2-0.3,2.9-0.4c1.2-0.2,1.9,0.2,2.1,1.4c0.4,1.8,0.9,3.5,1.3,5.3C70.2,1.8,69,3.4,67.9,5
				c-0.2,0.3-0.8,0.4-1.2,0.5c-7.8,1.4-15.4,0.8-22.8-2.1c-1.5-0.6-3.4-0.5-5.1-0.5c-1.5,0-3,0.4-4.5,0.5c-1.7,0.2-2.2-0.1-2.7-1.7
				c-0.7-2.2-1.3-4.5-1.9-6.8c-0.2-0.6-0.4-1.1-0.8-1.6c-2.9-3.8-5.5-7.6-7.4-12c-0.7-1.6-1.4-3.2-3.7-3.1c-1,0.1-1.4-0.8-1.6-1.6
				c-0.5-3-1.3-6-1.5-9c-0.2-3.2,0-6.5,0.2-9.8c0.3-3.9,2.2-6.1,6.1-7.1c-0.1-1.7-0.1-3.5-0.3-5.3c-0.2-2.3-0.6-4.7-0.9-7
				c-0.2-1.6,0-1.8,1.6-2c1.7-0.2,3.3-0.4,5-0.5c3-0.2,5.9-0.8,8.1-3c0.4-0.4,0.9-0.6,1.3-0.9c1-0.7,1.8-0.6,2.5,0.4
				c1,1.3,2.1,2.6,3.1,3.9c0.9,1,1.2,2.1,0.3,3.3c-0.8,1-1.5,2.2-2.5,2.9c-4,3-6.5,7-7.9,11.6c-2.2,7.4-0.9,14.5,2.3,21.4
				C33.9-24.4,34.1-24.5,34.3-24.6z M32-7.3C31.8-4,32.3-1,32.6,2c3.3,0,8.6-1.5,9.8-2.9C39.1-3,35.8-5,32-7.3z M23.7-53.7
				c2.4-3.5,4.4-6.5,6.8-9.9c-3.3,0.3-6.3,0.6-9.6,1C21.8-59.6,22.7-56.9,23.7-53.7z"/>
			<path d="M87.3-46.6c-0.6,0-1.1,0-1.5,0c-1.8-0.2-3.4-0.5-4.6-2.3c-1.4-2.1-3.3-3.9-5-5.9c-0.1-0.2-0.4-0.3-0.5-0.5
				c-1.6-3.7-5.3-4.9-8.5-6.2c-6.4-2.6-12.9-3.1-19.6-1c-1.8,0.6-4.6-1.2-5-3.1c-0.1-0.3-0.1-0.7,0.1-0.9c1.3-2,2.3-4.4,5-4.9
				c1.4-0.3,2.5-0.9,3.3-2.2c0.4-0.6,1.2-1.2,1.9-1.4c1.9-0.6,3.6-1.6,5-3.1c0.5-0.5,1.3-0.9,2-0.8c3.4,0.1,6.8,0.5,10,1.8
				c0.9,0.4,1.4,1,1.5,2c0.1,1,0.3,2.4,0.9,2.9c1.2,0.9,2.8,1.7,4.3,1.8c2.4,0.2,4.8-0.3,7.2-0.5c2-0.2,2.2-0.1,2.3,2
				c0.2,2.3,0.4,4.5,0.7,6.8c0.1,0.9,0.7,1.8,1.2,2.6c1,1.5,2.1,2.8,3.1,4.2c1.2,1.6,2.3,3.3,0.9,5.5c0.6-0.3,1.1-0.6,1.7-0.9
				c1.6-0.9,2-0.9,2.8,0.7c0.8,1.5,1.5,3.1,2.4,4.7c0.7,1.3,0.8,2.6,0,3.9c-1.2,1.8-1.4,3.8-1.2,5.9c0.3,3.7,0,7.4-1,11
				c-0.7,2.4-0.5,4.8,0,7.1c0.4,2.1,0.9,4.2,1.3,6.2c0.4,2.1,0,2.6-2.1,2.9c-1.7,0.2-3.4,0.5-5.2,0.7c-1,4.1-3.5,7-7,9.1
				c-2.4,1.5-2.7,1.4-4.6-0.7c-0.1-0.2-0.4-0.3-0.6-0.4c-1.5,0.6-3,1.4-4.5,2c-1.7,0.7-2.1,0.4-2.6-1.3C71.1,0,71-1.1,70.6-2
				c-1.1-2.6-0.1-4.8,1.4-6.8c0.4-0.6,1.1-1,1.8-1.3c3.3-1.7,6.2-3.8,8.6-6.7c0.8-1,1.3-1.9,0.3-3.2c-0.4-0.6-0.3-1.7-0.1-2.6
				c0.5-2.5,1.3-5,1.9-7.5c0.5-2,0.1-4.2,1.4-6.1c0.3-0.5,0.1-1.7-0.2-2.4c-1-2.3-0.9-4.4,0.8-6.3C86.8-45.3,87-45.9,87.3-46.6z
				 M95.7-18.4c-0.2,0-0.3,0-0.5,0c-1.6,2.7-3.1,5.3-4.7,8.1c2.2,0.9,4.3,1.2,6.9,0.6C96.8-12.7,96.3-15.5,95.7-18.4z M85.6-63.5
				c-0.1-2.4-0.3-4.5-0.4-6.8c-2.3,0.4-4.4,0.7-6.9,1.1C80.9-67.2,83.1-65.5,85.6-63.5z"/>
			<path d="M58.8-16.5c-3.7,0.1-8.2-1.7-12.2-5c-1.2-1-2.6-1.9-3.9-2.7c-0.9-0.6-1.5-1.3-1.7-2.4c-0.4-1.7-0.8-3.3-1.4-5
				c-2.5-7.6-0.5-16,5.9-21.4c3.7-3.1,8.1-3.9,12.7-3.5c4.2,0.4,8,2,11.4,4.5c0.9,0.7,2,1,3.1,1.4c1.4,0.5,2.3,1.3,2.5,2.8
				c0.2,2.4,1.2,4.5,1.9,6.8c1.9,6.3,1,12.2-2.9,17.6C70.7-18.5,66-16.5,58.8-16.5z M71.9-33.9c0-4.1-1.4-7.3-3.7-10
				c-2.5-3-5.8-5-9.7-5.5c-1.6-0.2-3.6-0.8-4.8,0.8c-1.3,1.6-3.2,0.3-4.7,1.5c-2.8,2.3-4.1,5.1-3.9,8.5c0.3,5.8,3.2,10.1,8.2,13
				c2.2,1.3,4.7,2.1,7.3,2c1.3,0,2.8,0,3.4-1.3c0.8-1.9,2.2-2.1,3.9-2c1,0,1.7-0.4,2.3-1.1C71.5-29.9,71.9-32,71.9-33.9z"/>
			<path d="M57.9-46.6c0.4,0.2,0.8,0.4,1.1,0.6c2.8,2.4,5.5,4.9,8.3,7.3c0.8,0.7,0.5,1.5,0,2.2c-1.6,2-3.2,4-4.8,5.9
				c-0.8,0.9-1.5,1.9-2.3,2.8c-0.9,1-1.3,1-2.2,0.3c-2.5-2.2-5-4.3-7.4-6.6c-1.4-1.3-1.5-1.8-0.3-3.2c2.1-2.8,4.4-5.6,6.6-8.4
				C57-46.1,57.5-46.3,57.9-46.6z M67.3-37.6c-3.2-2.9-6.2-5.5-9.3-8.3c-3,3.3-5.7,6.5-8.1,10.3c3.6-0.3,6.9-1.2,10.3-1.2
				c-0.2,2.6-0.3,5.1-0.5,7.5c0.1,0,0.2,0.1,0.4,0.1C62.5-31.9,64.8-34.7,67.3-37.6z"/>
		</g>
	</g>
</g>
</svg>
